<svg width="25" height="24" viewBox="0 0 25 24" fill="none" xmlns="http://www.w3.org/2000/svg">
<path d="M0.332031 6C0.332031 2.68629 3.01832 0 6.33203 0H18.332C21.6457 0 24.332 2.68629 24.332 6V18C24.332 21.3137 21.6457 24 18.332 24H6.33203C3.01832 24 0.332031 21.3137 0.332031 18V6Z" fill="#5A3AD8"/>
<path d="M12.4384 5.5C7.98559 5.5 4.33203 9.17265 4.33203 13.778V17.3341C4.33203 17.9753 4.84581 18.5 5.47377 18.5C6.10173 18.5 6.61551 17.9753 6.61551 17.3341V13.778C6.61551 13.1368 7.12929 12.6121 7.75725 12.6121C8.3852 12.6121 8.89898 13.1368 8.89898 13.778V17.3341C8.89898 17.9753 9.41277 18.5 10.0407 18.5C10.6687 18.5 11.1825 17.9753 11.1825 17.3341V13.778C11.1825 13.1368 11.6962 12.6121 12.3242 12.6121C12.9522 12.6121 13.4659 13.1368 13.4659 13.778V17.3341C13.4659 17.9753 13.9797 18.5 14.6077 18.5C15.2356 18.5 15.7494 17.9753 15.7494 17.3341V13.778C15.7494 13.1368 16.2632 12.6121 16.8912 12.6121C17.5191 12.6121 18.0329 13.1368 18.0329 13.778V17.3341C18.0329 17.9753 18.5467 18.5 19.1746 18.5C19.8026 18.5 20.3164 17.9753 20.3164 17.3341V13.778C20.6018 9.17265 16.9482 5.5 12.4384 5.5Z" fill="white"/>
</svg>
