<svg width="25" height="24" viewBox="0 0 25 24" fill="none" xmlns="http://www.w3.org/2000/svg">
<path d="M0.667969 6C0.667969 2.68629 3.35426 0 6.66797 0H18.668C21.9817 0 24.668 2.68629 24.668 6V18C24.668 21.3137 21.9817 24 18.668 24H6.66797C3.35426 24 0.667969 21.3137 0.667969 18V6Z" fill="black"/>
<path d="M14.6915 9.66675H10.6471C10.4753 9.66675 10.3359 9.806 10.3359 9.97782V14.0223C10.3359 14.1941 10.4753 14.3334 10.6471 14.3334H14.6915C14.8633 14.3334 15.0026 14.1941 15.0026 14.0223V9.97782C15.0026 9.806 14.8633 9.66675 14.6915 9.66675Z" fill="white"/>
<path d="M10.0235 5H5.9791C5.80729 5 5.66797 5.13925 5.66797 5.31113V9.35552C5.66797 9.52733 5.80729 9.66665 5.9791 9.66665H10.0235C10.1954 9.66665 10.3346 9.52733 10.3346 9.35552V5.31113C10.3346 5.13925 10.1954 5 10.0235 5Z" fill="white"/>
<path d="M19.3556 5H15.3111C15.1393 5 15 5.13925 15 5.31113V9.35552C15 9.52733 15.1393 9.66665 15.3111 9.66665H19.3556C19.5274 9.66665 19.6667 9.52733 19.6667 9.35552V5.31113C19.6667 5.13925 19.5274 5 19.3556 5Z" fill="white"/>
<path d="M10.0235 14.3333H5.9791C5.80729 14.3333 5.66797 14.4725 5.66797 14.6443V18.6888C5.66797 18.8606 5.80729 18.9999 5.9791 18.9999H10.0235C10.1954 18.9999 10.3346 18.8606 10.3346 18.6888V14.6443C10.3346 14.4725 10.1954 14.3333 10.0235 14.3333Z" fill="white"/>
<path d="M19.3556 14.3333H15.3111C15.1393 14.3333 15 14.4725 15 14.6443V18.6888C15 18.8606 15.1393 18.9999 15.3111 18.9999H19.3556C19.5274 18.9999 19.6667 18.8606 19.6667 18.6888V14.6443C19.6667 14.4725 19.5274 14.3333 19.3556 14.3333Z" fill="white"/>
</svg>
