<svg width="428" height="519" viewBox="0 0 428 519" fill="none" xmlns="http://www.w3.org/2000/svg">
<g opacity="0.053">
<path d="M164.647 302.387C164.647 316.106 168.715 329.517 176.337 340.923C183.958 352.33 194.791 361.221 207.466 366.47C220.14 371.72 234.087 373.094 247.542 370.418C260.997 367.741 273.356 361.135 283.057 351.434C292.758 341.734 299.364 329.375 302.04 315.919C304.717 302.464 303.343 288.518 298.093 275.843C292.843 263.169 283.953 252.336 272.546 244.714C261.139 237.092 247.729 233.024 234.01 233.024C215.614 233.025 197.971 240.333 184.963 253.341C171.955 266.349 164.647 283.991 164.647 302.387V302.387Z" fill="#C6CCCF"/>
<path d="M140.441 472.718C80.7 439.179 40.224 375.243 40.224 301.996C40.224 194.09 128.015 106.296 235.924 106.296C262.693 106.289 289.178 111.791 313.73 122.458C338.282 133.125 360.377 148.73 378.64 168.303L354.349 187.727C339.024 171.778 320.633 159.09 300.282 150.426C279.931 141.762 258.039 137.3 235.92 137.308C145.113 137.308 71.232 211.189 71.232 301.996C71.2172 318.565 73.7122 335.041 78.632 350.864H121.132C109.215 322.194 108.469 290.101 119.041 260.909C129.613 231.717 150.736 207.544 178.247 193.153C205.758 178.762 237.661 175.198 267.67 183.163C297.678 191.128 323.615 210.044 340.368 236.184L427.785 166.277C406.489 136.551 378.625 112.135 346.36 94.9276L364.16 28.5056L327.229 18.6056L310.86 79.6866C300.24 76.09 289.374 73.2634 278.347 71.2286L294.773 9.91758L257.842 0.0175781L239.763 67.4956C238.478 67.4736 237.209 67.3766 235.92 67.3766C105.832 67.3756 0 173.209 0 303.297C0 399.411 57.8 482.225 140.441 518.958V472.718Z" fill="#C6CCCF"/>
</g>
</svg>
