<svg width="19" height="19" viewBox="0 0 19 19" fill="none" xmlns="http://www.w3.org/2000/svg">
<g clip-path="url(#clip0_130_53660)">
<g clip-path="url(#clip1_130_53660)">
<path d="M18.1094 9.5C18.1094 4.52944 14.0799 0.5 9.10938 0.5C4.13881 0.5 0.109375 4.52944 0.109375 9.5C0.109375 14.4706 4.13881 18.5 9.10938 18.5C14.0799 18.5 18.1094 14.4706 18.1094 9.5Z" fill="#EFF2F7"/>
<path d="M12.7024 5.90756C12.7523 5.9573 12.7919 6.01639 12.8189 6.08145C12.8458 6.14651 12.8597 6.21625 12.8597 6.28668C12.8597 6.35712 12.8458 6.42686 12.8189 6.49192C12.7919 6.55697 12.7523 6.61607 12.7024 6.66581L6.27493 13.0933C6.17428 13.1939 6.03781 13.2503 5.89554 13.2502C5.75327 13.2502 5.61685 13.1936 5.5163 13.0929C5.41575 12.9923 5.3593 12.8558 5.35938 12.7135C5.35945 12.5713 5.41603 12.4349 5.51668 12.3343L11.9442 5.90756C11.9939 5.85769 12.053 5.81813 12.1181 5.79113C12.1831 5.76414 12.2529 5.75024 12.3233 5.75024C12.3937 5.75024 12.4635 5.76414 12.5285 5.79113C12.5936 5.81813 12.6527 5.85769 12.7024 5.90756Z" fill="#A6B0C3"/>
</g>
</g>
<defs>
<clipPath id="clip0_130_53660">
<rect width="18" height="18" fill="white" transform="translate(0.109375 0.5)"/>
</clipPath>
<clipPath id="clip1_130_53660">
<rect width="18" height="18" fill="white" transform="translate(0.109375 0.5)"/>
</clipPath>
</defs>
</svg>
