<svg width="8" height="13" viewBox="0 0 8 13" fill="none" xmlns="http://www.w3.org/2000/svg">
<path d="M3.03699 6.52265C3.03699 7.22902 3.60962 7.80165 4.31599 7.80165C5.02236 7.80165 5.59499 7.22902 5.59499 6.52265C5.59499 5.81628 5.02236 5.24365 4.31599 5.24365C3.60962 5.24365 3.03699 5.81628 3.03699 6.52265Z" fill="#A6B0C3"/>
<path d="M2.58996 9.6648C1.35166 8.96907 0.636767 7.61156 0.763681 6.19689C0.890594 4.78221 1.8357 3.57362 3.17806 3.10941C4.52041 2.6452 6.01023 3.01175 6.98396 4.0458L6.53596 4.4038C5.55885 3.38939 4.0125 3.1799 2.80072 3.89778C1.58893 4.61565 1.02973 6.07249 1.44996 7.4168H2.23396C1.78041 6.32098 2.23815 5.06018 3.28907 4.51055C4.33999 3.96092 5.63664 4.30419 6.27796 5.3018L7.89096 4.0128C7.49869 3.46473 6.98541 3.01442 6.39096 2.6968L6.71696 1.4708L6.03596 1.2888L5.73596 2.4158C5.53997 2.34945 5.33945 2.29732 5.13596 2.2598L5.43596 1.1288L4.75596 0.945801L4.42296 2.1908H4.35196C2.29802 2.1932 0.525502 3.63162 0.100301 5.64107C-0.324901 7.65052 0.713036 9.68362 2.58996 10.5178V9.6648Z" fill="#A6B0C3"/>
<path d="M6.33697 7.68066C6.24843 7.8332 6.14274 7.97512 6.02197 8.10366V9.05066C6.22915 8.9135 6.41888 8.75165 6.58697 8.56866L7.03397 8.92666C6.74593 9.24688 6.40327 9.51336 6.02197 9.71366V10.5557C6.806 10.2278 7.47765 9.67878 7.95497 8.97566L6.33697 7.68066Z" fill="#A6B0C3"/>
<path d="M5.33001 11.1028L5.32301 8.17383H1.78101C1.96215 8.46412 2.19065 8.72203 2.45701 8.93683H2.70501C3.05212 8.98691 3.3086 9.28614 3.30501 9.63683V11.1018C3.30528 11.2274 3.25536 11.348 3.16635 11.4366C3.07734 11.5252 2.95662 11.5746 2.83101 11.5738H2.50701V12.4468H6.02201V11.5738H5.80101C5.54088 11.5738 5.33001 11.363 5.33001 11.1028Z" fill="#A6B0C3"/>
</svg>
