<svg width="24" height="24" viewBox="0 0 24 24" fill="none" xmlns="http://www.w3.org/2000/svg">
<path d="M23.6383 14.9029C22.0356 21.3315 15.5244 25.2438 9.09503 23.6407C2.66833 22.0381 -1.24401 15.5265 0.359382 9.09837C1.96137 2.66903 8.47253 -1.24361 14.8999 0.359081C21.3289 1.96177 25.241 8.47405 23.6381 14.903L23.6382 14.9029H23.6383Z" fill="#003399"/>
<path d="M12 3L11.6082 4.21507L12.2111 4.41246L12 3Z" fill="#FFCC00"/>
<path d="M12 3L12.3918 4.21507L11.7889 4.41246L12 3Z" fill="#FFCC00"/>
<path d="M13.207 3.88452L11.9398 3.88306L11.9405 4.5204L13.207 3.88452Z" fill="#FFCC00"/>
<path d="M13.207 3.88367L12.1819 4.63388L11.8086 4.11635L13.207 3.88367Z" fill="#FFCC00"/>
<path d="M12.7422 5.3114L12.3495 4.09506L11.7464 4.29228L12.7422 5.3114Z" fill="#FFCC00"/>
<path d="M12.7422 5.31091L11.7152 4.55897L12.0879 4.04201L12.7422 5.31091Z" fill="#FFCC00"/>
<path d="M10.7852 3.8844L12.0524 3.88294L12.0517 4.52028L10.7852 3.8844Z" fill="#FFCC00"/>
<path d="M10.7852 3.88367L11.8103 4.63388L12.1836 4.11635L10.7852 3.88367Z" fill="#FFCC00"/>
<path d="M11.2539 5.31165L11.6466 4.0953L12.2497 4.29253L11.2539 5.31165Z" fill="#FFCC00"/>
<path d="M11.2539 5.31116L12.2809 4.55921L11.9082 4.04226L11.2539 5.31116Z" fill="#FFCC00"/>
<path d="M12 18.3311L11.6082 19.5461L12.2111 19.7435L12 18.3311Z" fill="#FFCC00"/>
<path d="M12 18.3311L12.3918 19.5461L11.7889 19.7435L12 18.3311Z" fill="#FFCC00"/>
<path d="M13.2031 19.2156L11.9359 19.2141L11.9366 19.8515L13.2031 19.2156Z" fill="#FFCC00"/>
<path d="M13.2031 19.2148L12.178 19.9651L11.8047 19.4475L13.2031 19.2148Z" fill="#FFCC00"/>
<path d="M12.7422 20.6432L12.3495 19.4268L11.7464 19.6241L12.7422 20.6432Z" fill="#FFCC00"/>
<path d="M12.7422 20.6429L11.7152 19.891L12.0879 19.374L12.7422 20.6429Z" fill="#FFCC00"/>
<path d="M10.7852 19.2156L12.0524 19.2141L12.0517 19.8515L10.7852 19.2156Z" fill="#FFCC00"/>
<path d="M10.7852 19.2147L11.8103 19.9649L12.1836 19.4474L10.7852 19.2147Z" fill="#FFCC00"/>
<path d="M11.25 20.6428L11.6427 19.4265L12.2458 19.6237L11.25 20.6428Z" fill="#FFCC00"/>
<path d="M11.25 20.6423L12.277 19.8904L11.9043 19.3734L11.25 20.6423Z" fill="#FFCC00"/>
<path d="M4.39453 10.6658L4.0027 11.8808L4.60566 12.0782L4.39453 10.6658Z" fill="#FFCC00"/>
<path d="M4.39453 10.6658L4.78636 11.8808L4.1834 12.0782L4.39453 10.6658Z" fill="#FFCC00"/>
<path d="M5.59766 11.5503L4.3304 11.5488L4.33113 12.1862L5.59766 11.5503Z" fill="#FFCC00"/>
<path d="M5.59766 11.5494L4.5725 12.2997L4.19918 11.7821L5.59766 11.5494Z" fill="#FFCC00"/>
<path d="M5.13672 12.9781L4.74404 11.7618L4.14093 11.959L5.13672 12.9781Z" fill="#FFCC00"/>
<path d="M5.13672 12.9779L4.10976 12.226L4.48244 11.709L5.13672 12.9779Z" fill="#FFCC00"/>
<path d="M3.17969 11.5502L4.44694 11.5487L4.44622 12.1861L3.17969 11.5502Z" fill="#FFCC00"/>
<path d="M3.17969 11.5494L4.20485 12.2997L4.57816 11.7821L3.17969 11.5494Z" fill="#FFCC00"/>
<path d="M3.64844 12.9777L4.04112 11.7613L4.64423 11.9585L3.64844 12.9777Z" fill="#FFCC00"/>
<path d="M3.64844 12.9771L4.6754 12.2251L4.30271 11.7081L3.64844 12.9771Z" fill="#FFCC00"/>
<path d="M7.4375 6.33777L8.46448 5.5858L8.09181 5.06887L7.4375 6.33777Z" fill="#FFCC00"/>
<path d="M7.4375 6.33826L7.83021 5.12189L8.43329 5.3191L7.4375 6.33826Z" fill="#FFCC00"/>
<path d="M6.98828 4.90979L8.01375 5.66034L8.38675 5.14314L6.98828 4.90979Z" fill="#FFCC00"/>
<path d="M6.98828 4.9104L8.25587 4.90961L8.25548 5.54761L6.98828 4.9104Z" fill="#FFCC00"/>
<path d="M8.19531 4.02673L7.80288 5.24223L8.40525 5.4392L8.19531 4.02673Z" fill="#FFCC00"/>
<path d="M8.19531 4.02673L8.58654 5.24137L7.98298 5.4392L8.19531 4.02673Z" fill="#FFCC00"/>
<path d="M8.93359 6.33752L7.90816 5.587L8.2812 5.06977L8.93359 6.33752Z" fill="#FFCC00"/>
<path d="M8.93359 6.33728L8.54231 5.1226L7.9388 5.32039L8.93359 6.33728Z" fill="#FFCC00"/>
<path d="M9.39844 4.90906L8.37233 5.66033L7.99997 5.14386L9.39844 4.90906Z" fill="#FFCC00"/>
<path d="M9.39453 4.9093L8.12687 4.90994L8.12655 5.5481L9.39453 4.9093Z" fill="#FFCC00"/>
<path d="M6.15234 9.14392L5.75963 7.92756L5.15656 8.12476L6.15234 9.14392Z" fill="#FFCC00"/>
<path d="M6.15234 9.14368L5.12536 8.39171L5.49803 7.87478L6.15234 9.14368Z" fill="#FFCC00"/>
<path d="M4.66016 9.14417L5.68559 8.39365L5.31255 7.87642L4.66016 9.14417Z" fill="#FFCC00"/>
<path d="M4.66016 9.14368L5.05144 7.929L5.65495 8.12679L4.66016 9.14368Z" fill="#FFCC00"/>
<path d="M4.19531 7.71545L5.22142 8.46673L5.59378 7.95025L4.19531 7.71545Z" fill="#FFCC00"/>
<path d="M4.19531 7.7157L5.46298 7.71634L5.4633 8.3545L4.19531 7.7157Z" fill="#FFCC00"/>
<path d="M6.61719 7.71558L5.59172 8.46613L5.21872 7.94893L6.61719 7.71558Z" fill="#FFCC00"/>
<path d="M6.61719 7.71606L5.3496 7.71527L5.34999 8.35328L6.61719 7.71606Z" fill="#FFCC00"/>
<path d="M5.40234 6.83252L5.79477 8.04801L5.19241 8.24498L5.40234 6.83252Z" fill="#FFCC00"/>
<path d="M5.40234 6.83252L5.01112 8.04716L5.61468 8.24498L5.40234 6.83252Z" fill="#FFCC00"/>
<path d="M6.61328 15.3831L5.34632 15.381L5.34735 16.0177L6.61328 15.3831Z" fill="#FFCC00"/>
<path d="M6.61719 15.3823L5.5923 16.1322L5.21872 15.6144L6.61719 15.3823Z" fill="#FFCC00"/>
<path d="M6.15625 16.8112L5.76271 15.5944L5.16041 15.791L6.15625 16.8112Z" fill="#FFCC00"/>
<path d="M6.15625 16.8099L5.12887 16.0574L5.50097 15.5411L6.15625 16.8099Z" fill="#FFCC00"/>
<path d="M4.66406 16.8097L5.6892 16.0595L5.31587 15.5419L4.66406 16.8097Z" fill="#FFCC00"/>
<path d="M4.66406 16.8087L5.0551 15.5944L5.65905 15.7924L4.66406 16.8087Z" fill="#FFCC00"/>
<path d="M5.40625 14.4987L5.79956 15.7152L5.19704 15.912L5.40625 14.4987Z" fill="#FFCC00"/>
<path d="M5.40625 14.4987L5.01556 15.7133L5.62071 15.912L5.40625 14.4987Z" fill="#FFCC00"/>
<path d="M4.21094 15.3811L5.47852 15.3819L5.47892 16.0199L4.21094 15.3811Z" fill="#FFCC00"/>
<path d="M4.21094 15.3806L5.23713 16.132L5.60941 15.6156L4.21094 15.3806Z" fill="#FFCC00"/>
<path d="M9.39844 18.189L8.13148 18.1869L8.13251 18.8237L9.39844 18.189Z" fill="#FFCC00"/>
<path d="M9.40234 18.188L8.37745 18.9379L8.00387 18.4201L9.40234 18.188Z" fill="#FFCC00"/>
<path d="M8.93359 19.6156L8.54005 18.3989L7.93775 18.5955L8.93359 19.6156Z" fill="#FFCC00"/>
<path d="M8.9375 19.6146L7.91012 18.8621L8.28222 18.3458L8.9375 19.6146Z" fill="#FFCC00"/>
<path d="M7.44531 19.6152L8.47045 18.865L8.09712 18.3475L7.44531 19.6152Z" fill="#FFCC00"/>
<path d="M7.44531 19.6143L7.83635 18.3999L8.4403 18.5979L7.44531 19.6143Z" fill="#FFCC00"/>
<path d="M8.19141 17.3043L8.58472 18.5209L7.98219 18.7176L8.19141 17.3043Z" fill="#FFCC00"/>
<path d="M8.19141 17.3043L7.80072 18.519L8.40587 18.7176L8.19141 17.3043Z" fill="#FFCC00"/>
<path d="M6.99219 18.1874L8.25977 18.1882L8.26017 18.8262L6.99219 18.1874Z" fill="#FFCC00"/>
<path d="M6.99219 18.1869L8.01838 18.9382L8.39066 18.4219L6.99219 18.1869Z" fill="#FFCC00"/>
<path d="M19.6016 10.6655L19.9934 11.8806L19.3904 12.078L19.6016 10.6655Z" fill="#FFCC00"/>
<path d="M19.6016 10.6655L19.2097 11.8806L19.8127 12.078L19.6016 10.6655Z" fill="#FFCC00"/>
<path d="M18.3984 11.5499L19.6657 11.5485L19.665 12.1858L18.3984 11.5499Z" fill="#FFCC00"/>
<path d="M18.3984 11.5492L19.4236 12.2994L19.7969 11.7819L18.3984 11.5492Z" fill="#FFCC00"/>
<path d="M18.8594 12.9779L19.2521 11.7616L19.8552 11.9588L18.8594 12.9779Z" fill="#FFCC00"/>
<path d="M18.8594 12.9777L19.8863 12.2257L19.5136 11.7088L18.8594 12.9777Z" fill="#FFCC00"/>
<path d="M20.8086 11.5499L19.5413 11.5485L19.5421 12.1858L20.8086 11.5499Z" fill="#FFCC00"/>
<path d="M20.8086 11.5494L19.7834 12.2997L19.4101 11.7821L20.8086 11.5494Z" fill="#FFCC00"/>
<path d="M20.3477 12.9779L19.955 11.7616L19.3519 11.9588L20.3477 12.9779Z" fill="#FFCC00"/>
<path d="M20.3477 12.9777L19.3207 12.2257L19.6934 11.7088L20.3477 12.9777Z" fill="#FFCC00"/>
<path d="M16.5469 6.33777L15.5199 5.5858L15.8926 5.06887L16.5469 6.33777Z" fill="#FFCC00"/>
<path d="M16.5469 6.33826L16.1542 5.12189L15.5511 5.3191L16.5469 6.33826Z" fill="#FFCC00"/>
<path d="M16.9961 4.90967L15.9706 5.66022L15.5976 5.14302L16.9961 4.90967Z" fill="#FFCC00"/>
<path d="M16.9961 4.91028L15.7285 4.90949L15.7289 5.54749L16.9961 4.91028Z" fill="#FFCC00"/>
<path d="M15.8008 4.02661L16.1932 5.24211L15.5908 5.43908L15.8008 4.02661Z" fill="#FFCC00"/>
<path d="M15.8008 4.02661L15.4096 5.24125L16.0131 5.43908L15.8008 4.02661Z" fill="#FFCC00"/>
<path d="M15.0547 6.33716L16.0801 5.58664L15.7071 5.06941L15.0547 6.33716Z" fill="#FFCC00"/>
<path d="M15.0547 6.33691L15.446 5.12224L16.0495 5.32002L15.0547 6.33691Z" fill="#FFCC00"/>
<path d="M14.5898 4.90869L15.616 5.65997L15.9883 5.14349L14.5898 4.90869Z" fill="#FFCC00"/>
<path d="M14.5898 4.90918L15.8575 4.90982L15.8578 5.54798L14.5898 4.90918Z" fill="#FFCC00"/>
<path d="M17.8438 9.14429L18.2365 7.92792L18.8395 8.12513L17.8438 9.14429Z" fill="#FFCC00"/>
<path d="M17.8438 9.1438L18.8707 8.39183L18.4981 7.8749L17.8438 9.1438Z" fill="#FFCC00"/>
<path d="M19.3359 9.14392L18.3105 8.3934L18.6835 7.87617L19.3359 9.14392Z" fill="#FFCC00"/>
<path d="M19.3359 9.14343L18.9447 7.92875L18.3411 8.12654L19.3359 9.14343Z" fill="#FFCC00"/>
<path d="M19.7969 7.71533L18.7708 8.46661L18.3984 7.95013L19.7969 7.71533Z" fill="#FFCC00"/>
<path d="M19.7969 7.71533L18.5292 7.71597L18.5289 8.35413L19.7969 7.71533Z" fill="#FFCC00"/>
<path d="M17.375 7.71582L18.4005 8.46637L18.7735 7.94917L17.375 7.71582Z" fill="#FFCC00"/>
<path d="M17.375 7.71631L18.6426 7.71552L18.6422 8.35352L17.375 7.71631Z" fill="#FFCC00"/>
<path d="M18.5898 6.8324L18.1974 8.04789L18.7998 8.24486L18.5898 6.8324Z" fill="#FFCC00"/>
<path d="M18.5898 6.8324L18.9811 8.04703L18.3775 8.24486L18.5898 6.8324Z" fill="#FFCC00"/>
<path d="M17.3867 15.3832L18.6537 15.3811L18.6527 16.0179L17.3867 15.3832Z" fill="#FFCC00"/>
<path d="M17.3828 15.3824L18.4077 16.1324L18.7813 15.6145L17.3828 15.3824Z" fill="#FFCC00"/>
<path d="M17.8477 16.8108L18.2412 15.5941L18.8435 15.7907L17.8477 16.8108Z" fill="#FFCC00"/>
<path d="M17.8438 16.8096L18.8711 16.0571L18.499 15.5407L17.8438 16.8096Z" fill="#FFCC00"/>
<path d="M19.3359 16.8097L18.3108 16.0595L18.6841 15.5419L19.3359 16.8097Z" fill="#FFCC00"/>
<path d="M19.3359 16.8092L18.9451 15.5948L18.3411 15.7929L19.3359 16.8092Z" fill="#FFCC00"/>
<path d="M18.5938 14.4987L18.2004 15.7152L18.803 15.912L18.5938 14.4987Z" fill="#FFCC00"/>
<path d="M18.5938 14.4987L18.9844 15.7133L18.3793 15.912L18.5938 14.4987Z" fill="#FFCC00"/>
<path d="M19.7891 15.3812L18.5215 15.382L18.5211 16.02L19.7891 15.3812Z" fill="#FFCC00"/>
<path d="M19.7891 15.3807L18.7629 16.1321L18.3906 15.6157L19.7891 15.3807Z" fill="#FFCC00"/>
<path d="M14.5977 18.1877L15.8646 18.1857L15.8636 18.8224L14.5977 18.1877Z" fill="#FFCC00"/>
<path d="M14.5938 18.1868L15.6186 18.9367L15.9922 18.4188L14.5938 18.1868Z" fill="#FFCC00"/>
<path d="M15.0625 19.6156L15.456 18.3989L16.0583 18.5955L15.0625 19.6156Z" fill="#FFCC00"/>
<path d="M15.0625 19.6146L16.0899 18.8621L15.7178 18.3458L15.0625 19.6146Z" fill="#FFCC00"/>
<path d="M16.5469 19.6145L15.5217 18.8643L15.8951 18.3468L16.5469 19.6145Z" fill="#FFCC00"/>
<path d="M16.5469 19.6138L16.156 18.3994L15.5521 18.5975L16.5469 19.6138Z" fill="#FFCC00"/>
<path d="M15.8086 17.3035L15.4153 18.52L16.0178 18.7168L15.8086 17.3035Z" fill="#FFCC00"/>
<path d="M15.8086 17.3035L16.1993 18.5181L15.5941 18.7168L15.8086 17.3035Z" fill="#FFCC00"/>
<path d="M17.0078 18.1863L15.7402 18.1871L15.7398 18.8251L17.0078 18.1863Z" fill="#FFCC00"/>
<path d="M17.0078 18.1858L15.9816 18.9371L15.6093 18.4208L17.0078 18.1858Z" fill="#FFCC00"/>
</svg>
