<svg width="261" height="49" viewBox="0 0 261 49" fill="none" xmlns="http://www.w3.org/2000/svg">
<path d="M12.662 23.7373C12.662 24.7923 12.9748 25.8236 13.5609 26.7007C14.1471 27.5779 14.9801 28.2616 15.9548 28.6653C16.9294 29.069 18.0019 29.1746 19.0366 28.9688C20.0713 28.763 21.0217 28.255 21.7677 27.509C22.5137 26.7631 23.0217 25.8126 23.2275 24.7779C23.4333 23.7432 23.3277 22.6707 22.924 21.6961C22.5203 20.7214 21.8366 19.8884 20.9594 19.3023C20.0822 18.7162 19.051 18.4033 17.996 18.4033C16.5813 18.4033 15.2246 18.9653 14.2243 19.9656C13.224 20.9659 12.662 22.3227 12.662 23.7373V23.7373Z" fill="#D82D3E"/>
<path d="M10.8 36.8364C8.9033 35.7782 7.25824 34.3218 5.97791 32.5673C4.69758 30.8129 3.81235 28.802 3.38307 26.6729C2.95379 24.5438 2.99064 22.347 3.49109 20.2335C3.99154 18.12 4.94372 16.14 6.28217 14.4294C7.62062 12.7189 9.31361 11.3185 11.2447 10.3245C13.1759 9.33052 15.2993 8.76647 17.4692 8.67116C19.639 8.57585 21.8038 8.95153 23.8146 9.77239C25.8255 10.5932 27.6347 11.8398 29.118 13.4264L27.25 14.9194C25.2714 12.8708 22.6599 11.5492 19.8374 11.1681C17.015 10.7869 14.1465 11.3686 11.6954 12.819C9.24431 14.2694 7.35385 16.5039 6.32947 19.1613C5.30509 21.8188 5.20663 24.744 6.05 27.4644H9.315C8.39673 25.2593 8.33812 22.7902 9.15074 20.5441C9.96335 18.2979 11.5882 16.4379 13.7047 15.3308C15.8213 14.2236 18.2759 13.9499 20.5843 14.5635C22.8928 15.1771 24.8875 16.6335 26.175 18.6454L32.9 13.2704C31.2615 10.9845 29.118 9.10717 26.636 7.78438L28 2.67537L25.16 1.91437L23.901 6.61438C23.0844 6.33796 22.2489 6.12073 21.401 5.96438L22.669 1.24537L19.829 0.484375L18.439 5.67338C18.339 5.67338 18.239 5.66437 18.139 5.66437C13.9796 5.66438 9.9465 7.09391 6.71554 9.71342C3.48459 12.3329 1.25206 15.9833 0.392028 20.0528C-0.468007 24.1224 0.0967058 28.3639 1.99155 32.0666C3.88638 35.7694 6.99623 38.7085 10.8 40.3914V36.8364Z" fill="#D82D3E"/>
<path d="M26.42 28.5654C26.0512 29.2008 25.611 29.7919 25.108 30.3274V34.2754C25.9723 33.7035 26.7638 33.0285 27.465 32.2654L29.33 33.7594C28.1284 35.0954 26.6988 36.207 25.108 37.0424V40.5514C28.3774 39.1851 31.1783 36.8967 33.169 33.9654L26.42 28.5654Z" fill="#D82D3E"/>
<path d="M22.225 42.8301L22.191 30.6191L7.425 30.6341C8.18184 31.8388 9.13462 32.9085 10.244 33.7991C10.244 33.7991 11.266 33.7991 11.278 33.7991C11.97 33.9069 12.6008 34.2583 13.0566 34.79C13.5124 35.3217 13.7633 35.9988 13.764 36.6991V42.8201C13.7637 43.3404 13.5569 43.8393 13.1891 44.2072C12.8212 44.5751 12.3223 44.7819 11.802 44.7821H10.452V48.4221H25.108V44.7821H24.185C23.6667 44.7816 23.1697 44.576 22.8025 44.2103C22.4352 43.8446 22.2276 43.3484 22.225 42.8301Z" fill="#D82D3E"/>
<path d="M58.679 36.4951C64.7 36.4951 67.786 32.5531 68.603 29.2951L64.696 28.1341C64.3312 29.4311 63.5368 30.5658 62.443 31.3524C61.3491 32.139 60.0207 32.531 58.675 32.4641C57.7687 32.4778 56.8693 32.3038 56.0335 31.9531C55.1977 31.6024 54.4435 31.0825 53.8183 30.4262C53.1932 29.7698 52.7106 28.9912 52.4009 28.1393C52.0913 27.2874 51.9612 26.3807 52.019 25.4761C52.019 20.6681 55.408 18.3991 58.619 18.3991C62.34 18.3991 64.005 20.6391 64.519 22.6691L68.452 21.4451C67.604 18.0101 64.549 14.4271 58.618 14.4271C57.1666 14.4043 55.7257 14.6755 54.3819 15.2243C53.0381 15.7731 51.8193 16.5882 50.7988 17.6205C49.7784 18.6528 48.9774 19.881 48.4442 21.231C47.9109 22.5811 47.6564 24.0251 47.696 25.4761C47.6435 26.9342 47.8915 28.3875 48.4244 29.7457C48.9573 31.104 49.7638 32.3381 50.7938 33.3715C51.8238 34.4049 53.0553 35.2154 54.4118 35.7528C55.7683 36.2901 57.2207 36.5428 58.679 36.4951ZM75.369 36.4951V29.6451C75.369 26.4181 77.082 25.4141 79.057 25.4141C79.4475 25.4138 79.837 25.4547 80.219 25.5361V21.4571C79.9203 21.4207 79.6199 21.4003 79.319 21.3961C78.4851 21.3379 77.6528 21.5299 76.9286 21.9475C76.2045 22.3651 75.6214 22.9892 75.254 23.7401V21.5181H71.507V36.4951H75.369ZM88.387 41.7271L97.64 21.3961H93.388L89.764 29.9271L85.841 21.3961H81.379L87.638 34.1371L84.164 41.7271H88.387ZM103.924 41.7271V34.5471C104.439 35.1578 105.089 35.6395 105.824 35.9538C106.558 36.2681 107.356 36.4062 108.153 36.3571C112.293 36.3571 115.062 33.0381 115.062 28.5431C115.062 24.1431 112.59 20.8201 108.302 20.8201C107.431 20.7624 106.56 20.929 105.773 21.304C104.985 21.679 104.306 22.2499 103.802 22.9621V21.1471H99.963V41.7271H103.924ZM107.819 33.0161C107.295 33.0216 106.775 32.9175 106.294 32.7105C105.812 32.5035 105.379 32.1982 105.022 31.8141C104.665 31.4299 104.393 30.9755 104.222 30.4799C104.051 29.9844 103.985 29.4585 104.029 28.9361C103.993 28.4184 104.064 27.899 104.238 27.4099C104.411 26.9209 104.684 26.4728 105.038 26.0935C105.392 25.7141 105.82 25.4116 106.296 25.2048C106.772 24.998 107.285 24.8913 107.804 24.8913C108.323 24.8913 108.836 24.998 109.312 25.2048C109.788 25.4116 110.216 25.7141 110.57 26.0935C110.924 26.4728 111.197 26.9209 111.37 27.4099C111.544 27.899 111.615 28.4184 111.579 28.9361C111.578 31.5141 109.914 33.0111 107.819 33.0111V33.0161ZM124.364 36.5001C125.151 36.5271 125.936 36.4063 126.678 36.1441V32.8761C126.262 32.9591 125.838 32.999 125.413 32.9951C124.241 32.9951 123.624 32.5801 123.624 31.3041V25.1921H126.678V21.6921H123.623V17.3271H119.923V19.3781C119.95 19.6916 119.907 20.0072 119.798 20.3024C119.689 20.5975 119.517 20.8651 119.293 21.086C119.069 21.3069 118.799 21.4758 118.502 21.5805C118.205 21.6853 117.889 21.7234 117.576 21.6921H116.805V25.1921H119.551V31.9861C119.551 34.8041 121.402 36.4951 124.364 36.4951V36.5001ZM136.264 36.5001C137.301 36.5289 138.334 36.3458 139.298 35.9621C140.262 35.5783 141.138 35.0018 141.872 34.268C142.606 33.5341 143.182 32.6583 143.566 31.6941C143.95 30.7299 144.133 29.6975 144.104 28.6601C144.104 26.5808 143.278 24.5867 141.808 23.1164C140.337 21.6461 138.343 20.8201 136.264 20.8201C134.185 20.8201 132.191 21.6461 130.72 23.1164C129.25 24.5867 128.424 26.5808 128.424 28.6601C128.396 29.6967 128.579 30.7282 128.963 31.6916C129.347 32.655 129.923 33.53 130.657 34.2632C131.39 34.9965 132.265 35.5725 133.228 35.9563C134.192 36.34 135.223 36.5233 136.26 36.4951L136.264 36.5001ZM136.264 33.0161C135.742 33.0221 135.224 32.9187 134.744 32.7126C134.264 32.5065 133.832 32.2023 133.476 31.8195C133.121 31.4366 132.849 30.9837 132.679 30.4897C132.509 29.9957 132.444 29.4716 132.489 28.9511C132.451 28.4323 132.521 27.9112 132.693 27.4204C132.866 26.9297 133.138 26.4798 133.492 26.0988C133.846 25.7178 134.275 25.414 134.752 25.2062C135.229 24.9984 135.744 24.8912 136.264 24.8912C136.784 24.8912 137.299 24.9984 137.776 25.2062C138.253 25.414 138.682 25.7178 139.036 26.0988C139.39 26.4798 139.662 26.9297 139.835 27.4204C140.007 27.9112 140.077 28.4323 140.039 28.9511C140.085 29.4721 140.022 29.997 139.852 30.4918C139.682 30.9866 139.41 31.4401 139.054 31.823C138.698 32.2059 138.265 32.5095 137.783 32.7142C137.302 32.9189 136.783 33.02 136.26 33.0111L136.264 33.0161ZM158.623 36.5001V15.0081H154.558V36.4951L158.623 36.5001ZM167.806 36.5001V28.0341C167.766 27.6501 167.807 27.262 167.926 26.8948C168.045 26.5276 168.24 26.1894 168.498 25.902C168.756 25.6147 169.071 25.3846 169.423 25.2265C169.775 25.0684 170.157 24.9858 170.543 24.9841C172.443 24.9841 173.25 26.2701 173.25 27.9141V36.4951H177.207V27.2271C177.207 23.9981 175.541 21.3971 171.907 21.3971C171.072 21.3714 170.245 21.5616 169.505 21.9493C168.765 22.337 168.137 22.909 167.683 23.6101V21.7851H163.845V36.4951L167.806 36.5001ZM186.123 36.5001C189.907 36.5001 191.723 34.0371 191.723 31.6341C191.723 29.4711 190.286 27.6991 187.441 27.0981L185.388 26.6471C184.596 26.4971 184.068 26.0471 184.068 25.3251C184.092 25.107 184.16 24.8959 184.266 24.7039C184.372 24.5118 184.515 24.3426 184.687 24.2059C184.858 24.0691 185.055 23.9676 185.266 23.9071C185.477 23.8465 185.698 23.8282 185.916 23.8531C186.492 23.8086 187.063 23.991 187.507 24.3614C187.951 24.7319 188.233 25.261 188.292 25.8361L191.548 25.0851C191.372 23.4931 189.993 20.8201 185.887 20.8201C182.778 20.8201 180.487 23.0131 180.487 25.6561C180.487 27.7291 181.748 29.4411 184.535 30.0721L186.441 30.5231C187.556 30.7631 187.996 31.3041 187.996 31.9651C187.996 32.7461 187.38 33.4371 186.09 33.4371C185.768 33.4672 185.443 33.4324 185.134 33.3347C184.826 33.237 184.54 33.0784 184.294 32.8684C184.048 32.6583 183.846 32.401 183.701 32.1117C183.556 31.8225 183.471 31.507 183.45 31.1841L180.106 31.9351C180.282 33.6121 181.778 36.4951 186.119 36.4951L186.123 36.5001ZM198.694 35.9191V21.3961H194.629V35.9151L198.694 35.9191ZM209.284 36.5001C210.087 36.5462 210.888 36.3786 211.605 36.0144C212.322 35.6503 212.93 35.1026 213.366 34.4271C213.368 34.9999 213.417 35.5715 213.514 36.1361H217.274C217.215 35.5361 217.156 34.4571 217.156 33.4671V14.4271H213.278V22.8531C212.863 22.0731 211.678 21.0241 209.163 21.0241C205.048 21.0241 202.176 24.4121 202.176 28.7301C202.175 33.1971 205.135 36.4951 209.28 36.4951L209.284 36.5001ZM209.453 33.0161C207.278 33.0161 205.663 31.4951 205.663 28.9221C205.616 28.4013 205.681 27.8765 205.851 27.3823C206.022 26.888 206.295 26.4354 206.653 26.0542C207.011 25.6731 207.445 25.3719 207.928 25.1706C208.411 24.9693 208.93 24.8723 209.453 24.8861C209.973 24.8697 210.49 24.9641 210.97 25.1631C211.45 25.3621 211.882 25.6611 212.238 26.0402C212.594 26.4193 212.864 26.8698 213.032 27.3617C213.2 27.8536 213.262 28.3757 213.212 28.8931C213.209 31.4901 211.562 33.0111 209.45 33.0111L209.453 33.0161ZM227.785 36.5001C229.266 36.5805 230.731 36.1628 231.946 35.3134C233.161 34.4641 234.057 33.2321 234.491 31.8141L231.168 30.8231C230.945 31.5216 230.492 32.1242 229.884 32.5331C229.275 32.9421 228.546 33.1334 227.815 33.0761C226.878 33.111 225.965 32.7782 225.27 32.1487C224.575 31.5192 224.154 30.643 224.096 29.7071H234.633C234.633 29.6471 234.693 29.0461 234.693 28.4751C234.693 23.7291 231.969 20.8151 227.419 20.8151C226.428 20.8359 225.451 21.0554 224.547 21.4605C223.642 21.8656 222.828 22.4482 222.152 23.1736C221.477 23.8991 220.954 24.7527 220.614 25.684C220.274 26.6152 220.125 27.6051 220.175 28.5951C220.116 29.6231 220.27 30.6522 220.627 31.6178C220.985 32.5835 221.538 33.4648 222.252 34.2066C222.966 34.9484 223.826 35.5346 224.778 35.9284C225.729 36.3222 226.752 36.5151 227.781 36.4951L227.785 36.5001ZM230.635 27.2081H224.247C224.306 26.4073 224.67 25.6597 225.265 25.1199C225.859 24.5802 226.638 24.2895 227.441 24.3081C227.845 24.2692 228.252 24.3152 228.637 24.4429C229.022 24.5707 229.376 24.7775 229.676 25.0501C229.977 25.3226 230.217 25.655 230.381 26.0257C230.546 26.3965 230.631 26.7975 230.631 27.2031L230.635 27.2081ZM242.047 36.5001V29.6501C242.047 26.4231 243.76 25.4191 245.735 25.4191C246.125 25.4189 246.514 25.4598 246.896 25.5411V21.4571C246.597 21.4207 246.297 21.4003 245.996 21.3961C245.162 21.3379 244.33 21.5299 243.606 21.9475C242.881 22.3651 242.298 22.9892 241.931 23.7401V21.5181H238.185V36.4951L242.047 36.5001ZM254.647 36.5001C258.431 36.5001 260.247 34.0371 260.247 31.6341C260.247 29.4711 258.81 27.6991 255.965 27.0981L253.912 26.6471C253.12 26.4971 252.592 26.0471 252.592 25.3251C252.616 25.107 252.684 24.8959 252.79 24.7039C252.896 24.5118 253.039 24.3426 253.211 24.2059C253.382 24.0691 253.579 23.9676 253.79 23.9071C254.001 23.8465 254.222 23.8282 254.44 23.8531C255.016 23.8086 255.587 23.991 256.031 24.3614C256.475 24.7319 256.757 25.261 256.816 25.8361L260.072 25.0851C259.896 23.4931 258.517 20.8201 254.411 20.8201C251.302 20.8201 249.011 23.0131 249.011 25.6561C249.011 27.7291 250.272 29.4411 253.059 30.0721L254.966 30.5231C256.081 30.7631 256.521 31.3041 256.521 31.9651C256.521 32.7461 255.905 33.4371 254.615 33.4371C254.293 33.4672 253.968 33.4324 253.659 33.3347C253.351 33.237 253.065 33.0784 252.819 32.8684C252.573 32.6583 252.371 32.401 252.226 32.1117C252.081 31.8225 251.996 31.507 251.975 31.1841L248.631 31.9351C248.81 33.6121 250.306 36.4951 254.647 36.4951V36.5001Z" fill="white"/>
<path d="M196.948 19.0728C197.564 19.0728 198.155 18.828 198.591 18.3924C199.026 17.9567 199.271 17.3659 199.271 16.7498C199.271 16.1337 199.026 15.5428 198.591 15.1071C198.155 14.6715 197.564 14.4268 196.948 14.4268C196.332 14.4268 195.741 14.6715 195.305 15.1071C194.87 15.5428 194.625 16.1337 194.625 16.7498C194.625 17.3659 194.87 17.9567 195.305 18.3924C195.741 18.828 196.332 19.0728 196.948 19.0728Z" fill="white"/>
</svg>
