<?xml version="1.0" encoding="UTF-8"?>
<svg xmlns="http://www.w3.org/2000/svg" id="Layer_x0020_1" width="16" height="16.002" viewBox="0 0 16 16.002">
  <g id="_1421344023328" transform="translate(0 0)">
    <path id="Path_5869" data-name="Path 5869" d="M15.76,9.937A8,8,0,1,1,9.934.24a8,8,0,0,1,5.826,9.7h0Z" transform="translate(0 -0.001)" fill="#f7931a"></path>
    <path id="Path_5870" data-name="Path 5870" d="M1003.5,716.936c.167-1.094-.685-1.682-1.851-2.075l.378-1.482-.924-.225-.368,1.443c-.243-.059-.492-.115-.74-.17l.371-1.453-.923-.225-.379,1.482c-.2-.045-.4-.089-.59-.136v0l-1.274-.311-.246.964s.685.153.671.163a.482.482,0,0,1,.43.525l-.431,1.688a.769.769,0,0,1,.1.03l-.1-.024-.6,2.365a.337.337,0,0,1-.423.214c.009.013-.671-.164-.671-.164l-.458,1.033,1.2.293c.224.055.443.112.658.166l-.382,1.5.923.225.379-1.483c.252.067.5.128.736.186l-.377,1.476.923.225.382-1.5c1.575.291,2.759.174,3.257-1.218a1.57,1.57,0,0,0-.849-2.188,1.452,1.452,0,0,0,1.179-1.325h0Zm-2.11,2.891c-.285,1.12-2.217.515-2.843.363l.507-1.986c.626.153,2.634.455,2.335,1.623Zm.286-2.907c-.26,1.019-1.867.5-2.389.374l.46-1.8c.521.127,2.2.364,1.929,1.427Z" transform="translate(-991.762 -710.095)" fill="#fff"></path>
  </g>
</svg>
