<?xml version="1.0" encoding="UTF-8"?>
<svg xmlns="http://www.w3.org/2000/svg" xmlns:xlink="http://www.w3.org/1999/xlink" id="Group_7094" data-name="Group 7094" width="16" height="16" viewBox="0 0 16 16">
  <defs>
    <clipPath id="clip-path">
      <rect width="16" height="16" fill="none"></rect>
    </clipPath>
  </defs>
  <g id="Repeat_Grid_16" data-name="Repeat Grid 16" clip-path="url(#clip-path)">
    <path id="Path_24863" data-name="Path 24863" d="M8,0A8,8,0,1,1,0,8,8,8,0,0,1,8,0Z" fill="#f0b90b" fill-rule="evenodd"></path>
  </g>
  <path id="Path_24864" data-name="Path 24864" d="M523.646,728.152l.006,2.115,1.8,1.057v1.238l-2.848-1.67v-3.357l1.046.618Zm0-2.115v1.232l-1.046-.619v-1.232l1.046-.619,1.052.619-1.052.619Zm2.553-.619,1.046-.619,1.052.619-1.052.619-1.046-.619Z" transform="translate(-519.25 -720.152)" fill="#fff"></path>
  <path id="Path_24865" data-name="Path 24865" d="M803.9,729.829v-1.238l1.046.619v1.232l-1.046-.613Zm1.8,1.939,1.046.619,1.052-.619V733l-1.052.619L805.7,733v-1.232Zm3.6-6.349,1.046-.619,1.051.619v1.232l-1.051.619v-1.232l-1.046-.619Zm1.046,4.848.006-2.115,1.046-.619v3.358l-2.848,1.67v-1.238l1.8-1.057Z" transform="translate(-798.744 -720.151)" fill="#fff"></path>
  <path id="Path_24867" data-name="Path 24867" d="M809.591,398.69l.006,1.238-1.8,1.057v2.12l-1.046.613L805.7,403.1v-2.12l-1.8-1.057V398.69l1.051-.619,1.791,1.062,1.8-1.062,1.052.619Zm-5.691-2.114,2.843-1.676,2.848,1.676-1.046.619-1.8-1.062-1.8,1.062-1.046-.619Z" transform="translate(-798.746 -392.367)" fill="#fff"></path>
</svg>
