<?xml version="1.0" encoding="UTF-8"?>
<svg xmlns="http://www.w3.org/2000/svg" width="16" height="16" viewBox="0 0 16 16">
  <g id="Group_6494" data-name="Group 6494" transform="translate(-95 -5006)">
    <path id="Path_6349" data-name="Path 6349" d="M8,0A8,8,0,1,1,0,8,8,8,0,0,1,8,0Z" transform="translate(95 5006)" fill="#0733ad"></path>
    <g id="Layer_2_1_" transform="translate(97.038 5008.492)">
      <g id="Layer_1-2" transform="translate(0 0)">
        <path id="Path_6319" data-name="Path 6319" d="M102.759,148.859a.8.8,0,0,0,.757.846h.048a.8.8,0,1,0-.8-.846Z" transform="translate(-99.491 -143.39)" fill="#fff"></path>
        <path id="Path_6320" data-name="Path 6320" d="M.265,165.483a.26.26,0,1,0,.245.273.258.258,0,0,0-.245-.273Z" transform="translate(0.008 -160.22)" fill="#fff"></path>
        <path id="Path_6321" data-name="Path 6321" d="M89.716,10.431a.26.26,0,0,0-.235-.464.26.26,0,0,0,.235.464Z" transform="translate(-86.498 -9.623)" fill="#fff"></path>
        <path id="Path_6322" data-name="Path 6322" d="M109.149,47.027a.4.4,0,1,0-.537-.178A.4.4,0,0,0,109.149,47.027Z" transform="translate(-105.117 -44.798)" fill="#fff"></path>
        <path id="Path_6323" data-name="Path 6323" d="M36.026,82.327a.331.331,0,1,0-.1-.458h0A.329.329,0,0,0,36.026,82.327Z" transform="translate(-34.735 -79.122)" fill="#fff"></path>
        <path id="Path_6324" data-name="Path 6324" d="M43,160.979a.4.4,0,1,0,.378.423h0A.4.4,0,0,0,43,160.979Z" transform="translate(-41.225 -155.86)" fill="#fff"></path>
        <path id="Path_6325" data-name="Path 6325" d="M36.464,244.618a.331.331,0,1,0,.445.146h0a.333.333,0,0,0-.445-.146Z" transform="translate(-35.128 -236.806)" fill="#fff"></path>
        <path id="Path_6326" data-name="Path 6326" d="M84.477,108.528a.471.471,0,1,0-.137-.652.468.468,0,0,0,.137.652Z" transform="translate(-81.583 -104.239)" fill="#fff"></path>
        <path id="Path_6327" data-name="Path 6327" d="M240.951,46.675a.4.4,0,1,0-.114-.556h0a.4.4,0,0,0,.114.556Z" transform="translate(-233.114 -44.478)" fill="#fff"></path>
        <path id="Path_6328" data-name="Path 6328" d="M268.744,10.031a.26.26,0,1,0-.076-.362.268.268,0,0,0,.076.362Z" transform="translate(-260.086 -9.249)" fill="#fff"></path>
        <path id="Path_6329" data-name="Path 6329" d="M222.6,147.859a.8.8,0,0,0-.089,1.6h.045a.8.8,0,0,0,.045-1.6Z" transform="translate(-214.707 -143.157)" fill="#fff"></path>
        <path id="Path_6330" data-name="Path 6330" d="M132.464,97.545a.8.8,0,1,0,.356-1.081.8.8,0,0,0-.356,1.081Z" transform="translate(-128.168 -93.312)" fill="#fff"></path>
        <path id="Path_6331" data-name="Path 6331" d="M318.309,81.786a.331.331,0,1,0-.448-.146.336.336,0,0,0,.448.146Z" transform="translate(-307.721 -78.581)" fill="#fff"></path>
        <path id="Path_6332" data-name="Path 6332" d="M261.073,107.306a.471.471,0,1,0,.633.21A.472.472,0,0,0,261.073,107.306Z" transform="translate(-252.52 -103.846)" fill="#fff"></path>
        <path id="Path_6333" data-name="Path 6333" d="M177,.647a.335.335,0,0,0,.35-.312.331.331,0,0,0-.661-.041A.336.336,0,0,0,177,.647Z" transform="translate(-171.068 0.015)" fill="#fff"></path>
        <path id="Path_6334" data-name="Path 6334" d="M172.827,57.414a.471.471,0,1,0-.445-.5.468.468,0,0,0,.445.5Z" transform="translate(-166.901 -54.676)" fill="#fff"></path>
        <path id="Path_6335" data-name="Path 6335" d="M85.2,210.506a.471.471,0,1,0-.633-.21A.471.471,0,0,0,85.2,210.506Z" transform="translate(-81.826 -202.948)" fill="#fff"></path>
        <path id="Path_6336" data-name="Path 6336" d="M192.014,96.762a.8.8,0,1,0,.671-.362A.8.8,0,0,0,192.014,96.762Z" transform="translate(-185.782 -93.335)" fill="#fff"></path>
        <path id="Path_6337" data-name="Path 6337" d="M193.6,199.92a.8.8,0,1,0-.356,1.078h0a.8.8,0,0,0,.359-1.071S193.6,199.923,193.6,199.92Z" transform="translate(-185.97 -193.134)" fill="#fff"></path>
        <path id="Path_6338" data-name="Path 6338" d="M261.792,209.24a.471.471,0,1,0,.137.652.468.468,0,0,0-.137-.652Z" transform="translate(-252.762 -202.512)" fill="#fff"></path>
        <path id="Path_6339" data-name="Path 6339" d="M307.981,160.8a.4.4,0,1,0-.423.378h0A.4.4,0,0,0,307.981,160.8Z" transform="translate(-297.412 -155.279)" fill="#fff"></path>
        <path id="Path_6340" data-name="Path 6340" d="M358.965,164.683a.26.26,0,1,0,.245.273A.262.262,0,0,0,358.965,164.683Z" transform="translate(-347.287 -159.446)" fill="#fff"></path>
        <path id="Path_6341" data-name="Path 6341" d="M318.831,244.074a.331.331,0,1,0,.1.458.329.329,0,0,0-.1-.458Z" transform="translate(-308.2 -236.262)" fill="#fff"></path>
        <path id="Path_6342" data-name="Path 6342" d="M90.355,320.6a.259.259,0,1,0,.073.359h0A.255.255,0,0,0,90.355,320.6Z" transform="translate(-87.093 -310.361)" fill="#fff"></path>
        <path id="Path_6343" data-name="Path 6343" d="M269.481,320.226a.26.26,0,1,0,.235.464.26.26,0,0,0-.235-.464Z" transform="translate(-260.776 -310.017)" fill="#fff"></path>
        <path id="Path_6344" data-name="Path 6344" d="M134.016,200.826a.8.8,0,1,0-1.113.232.806.806,0,0,0,1.113-.232Z" transform="translate(-128.324 -193.237)" fill="#fff"></path>
        <path id="Path_6345" data-name="Path 6345" d="M109.561,275.4a.4.4,0,1,0,.114.556h0A.4.4,0,0,0,109.561,275.4Z" transform="translate(-105.475 -266.584)" fill="#fff"></path>
        <path id="Path_6346" data-name="Path 6346" d="M176.726,325.686a.331.331,0,1,0,.312.353.335.335,0,0,0-.312-.353Z" transform="translate(-170.767 -315.33)" fill="#fff"></path>
        <path id="Path_6347" data-name="Path 6347" d="M172.369,260.373a.471.471,0,1,0,.445.5.468.468,0,0,0-.445-.5Z" transform="translate(-166.408 -252.094)" fill="#fff"></path>
        <path id="Path_6348" data-name="Path 6348" d="M241.524,275.069a.4.4,0,1,0,.544.178.4.4,0,0,0-.544-.178Z" transform="translate(-233.633 -266.281)" fill="#fff"></path>
      </g>
    </g>
  </g>
</svg>
