<?xml version="1.0" encoding="UTF-8"?>
<svg xmlns="http://www.w3.org/2000/svg" xmlns:xlink="http://www.w3.org/1999/xlink" width="16" height="16" viewBox="0 0 16 16">
  <defs>
    <clipPath id="clip-path">
      <rect width="16" height="16" fill="none"></rect>
    </clipPath>
  </defs>
  <g id="Layer_2" data-name="Layer 2" clip-path="url(#clip-path)">
    <g id="Layer_2-2" data-name="Layer 2">
      <g id="Layer_1" data-name="Layer 1">
        <g id="Layer_1-2" data-name="Layer_1">
          <circle id="Ellipse_2822" data-name="Ellipse 2822" cx="8" cy="8" r="8" fill="#988430"></circle>
          <circle id="Ellipse_2823" data-name="Ellipse 2823" cx="7.864" cy="7.864" r="7.864" transform="translate(0.26 0.26)" fill="#7a6a2a"></circle>
          <circle id="Ellipse_2824" data-name="Ellipse 2824" cx="7.698" cy="7.698" r="7.698" transform="translate(0.426 0.426)" fill="#ba9f33"></circle>
          <path id="Path_24868" data-name="Path 24868" d="M134.378,720.1c-.046-.042-.095-.084-.139-.126l-.137-.126-.137-.13c-.022-.022-.046-.042-.068-.064l-.071-.062c-.181-.172-.364-.344-.543-.517.185.17.367.338.552.51l.064.064c.022.022.046.042.068.064l.137.126c.046.042.091.084.137.13s.091.088.137.13Zm-2.408-.026s.66.068.982.114c.3.042,1.232.185,1.232.185Zm0,0c.185.016.371.035.556.055l.276.029.139.016.137.02.552.088.276.046.276.049c-.091-.009-.185-.022-.276-.036l-.276-.039-.552-.081-.137-.022-.139-.016c-.091-.009-.185-.022-.276-.033-.185-.022-.371-.046-.556-.075Zm2.148.472s-.7.179-.943.247-.943.28-.943.28l1.885-.527Z" transform="translate(-130.826 -712.839)" fill="#cfb66c" fill-rule="evenodd"></path>
          <path id="Path_24869" data-name="Path 24869" d="M164.81,888.8c-.156.046-.312.091-.471.133l-.471.126-.468.137-.234.064c-.078.022-.156.042-.237.065.077-.026.156-.053.234-.075l.234-.075.468-.143c.159-.039.316-.082.475-.12s.31-.076.469-.112h0Zm-1.786.961c.077-.029.971-.446,1.179-.543.1-.049.406-.156.406-.156Z" transform="translate(-161.518 -881.098)" fill="#cfb66c" fill-rule="evenodd"></path>
          <path id="Path_24870" data-name="Path 24870" d="M173.69,920.6c.068-.026.133-.058.2-.088l.195-.091.39-.188c.13-.062.256-.13.39-.188.068-.029.137-.053.205-.075l.1-.033.1-.029c-.13.062-.267.114-.4.175s-.263.117-.4.175l-.4.175c-.133.054-.263.112-.4.167h0Zm.087.364s.81-.475,1.088-.627c.146-.081.618-.316.618-.316Z" transform="translate(-172.185 -911.939)" fill="#cfb66c" fill-rule="evenodd"></path>
          <path id="Path_24871" data-name="Path 24871" d="M183.71,933.6l.415-.256.208-.126.212-.123c.071-.042.139-.084.212-.124a.76.76,0,0,1,.108-.055l.11-.055c.146-.071.292-.143.446-.205-.139.088-.283.163-.426.241-.071.039-.143.075-.214.114s-.139.082-.212.12-.139.081-.212.12l-.214.117-.432.234h0Zm1.7-.839s-.5.386-.666.51-.643.471-.643.471Z" transform="translate(-182.118 -924.568)" fill="#cfb66c" fill-rule="evenodd"></path>
          <path id="Path_24872" data-name="Path 24872" d="M683.818,692.7l-.258-.488.15-.61,1.069-.413-.455-.933.225-.943.422-.844,1.3-.205.958-.914,2.069.156.406,2.212-.782,2.786-.446,1.442-1.806.068-.839-.581-.982-.41Z" transform="translate(-677.637 -681.394)" fill="#e2cc85" fill-rule="evenodd"></path>
          <path id="Path_24873" data-name="Path 24873" d="M398.993,1086.54a1.527,1.527,0,0,1-.676.088c-.123-.166-.987-.243-.987-.243a.482.482,0,0,0-.3.046,3.317,3.317,0,0,1-.543.11c-.17.042-.338-.179-.468-.225a1.832,1.832,0,0,1-.3-.166l-.364-.036-.731-.309-1.161-1.157-.316.494-.1.611.351.724.945.861,1.843.468,1.092-.322,1.368-.578Z" transform="translate(-389.644 -1075.251)" fill="#f1d789" fill-rule="evenodd"></path>
          <path id="Path_24874" data-name="Path 24874" d="M304.326,689.041l.234-.708.279-.458.9-.075-.27.786-.751,1.336.312,1.192-.552.276-.17-.26-.137-.6-.009-.67Z" transform="translate(-301.524 -681.84)" fill="#f4ecb4" fill-rule="evenodd"></path>
          <path id="Path_24875" data-name="Path 24875" d="M310.279,851.287l-.172-.241a.4.4,0,0,1-.02-.214c.026-.1.022-.108.009-.146s-.124-.17-.117-.283-.009-.153.075-.243a.3.3,0,0,0,.062-.241l.114.071.026-.039a.117.117,0,0,1,.042.084c.009-.071-.029-.4.058-.474s.241.351.241.351l-.095-.618-.243-.634-.432-.578-.026-.638v-.055a2.144,2.144,0,0,0-.254.546c-.039.166.055.367.036.6s-.036.218.022.312.2.287.143.426c-.049.12-.214.036-.214.036a.359.359,0,0,1-.078.133.3.3,0,0,0-.064-.13c0,.022-.009.053-.009.053s-.029-.091-.058-.205c-.039-.152-.081-.354-.12-.461-.016.062-.055.25-.055.25l.022.289.108.4.1.26.1.318.088.214.071.163.062.367.3.315.159.071.116-.059h0Z" transform="translate(-306.471 -840.047)" fill="#f3e19d" fill-rule="evenodd"></path>
          <path id="Path_24876" data-name="Path 24876" d="M299.335,716.644a2.5,2.5,0,0,0-.276.731,4.834,4.834,0,0,0-.078,1.254,5.193,5.193,0,0,0,.175,1.033,5.758,5.758,0,0,0,.373.877l.009-.02a1.386,1.386,0,0,1-.108-.27c-.036-.139-.049-.3-.082-.38a1.814,1.814,0,0,1-.1-.231.989.989,0,0,0-.095-.331.671.671,0,0,1-.075-.263c-.013-.166.007-.351-.009-.5a2.024,2.024,0,0,1-.022-.559c.026-.133.163-.51.247-.81.055-.192.022-.354.123-.521a1.47,1.47,0,0,0,.185-.413c.026-.092-.268.4-.268.4h0Z" transform="translate(-296.378 -710.022)" fill="#f2e8b0" fill-rule="evenodd"></path>
          <path id="Path_24877" data-name="Path 24877" d="M375.595,747.42a.429.429,0,0,0-.163.091,2.367,2.367,0,0,0-.146.195,1.527,1.527,0,0,0-.133.287c-.058.114-.185.287-.2.348s-.042.351-.075.488a.656.656,0,0,0,.033.3l.075-.016a.236.236,0,0,0,.075.163c.075.064.088-.218.088-.218l.28-.945.422-.287.046-.231-.3-.179h0Z" transform="translate(-371.621 -740.943)" fill="#f5eec0" fill-rule="evenodd"></path>
          <path id="Path_24878" data-name="Path 24878" d="M395.893,783.923a.707.707,0,0,0-.3.084c-.039.029-.055.053-.1.088a.643.643,0,0,0-.195.208,1.379,1.379,0,0,0-.12.452c-.013.1-.013.195-.022.276a1.152,1.152,0,0,0-.022.26c.013.126.143.192.156.335l.269-.137.254-1,.539-.338-.305-.342-.162.113h0Z" transform="translate(-391.714 -777.018)" fill="#e6db9d" fill-rule="evenodd"></path>
          <path id="Path_24879" data-name="Path 24879" d="M318.17,1210.4l0-.03c.039-.338.046-.594.075-.754a1.981,1.981,0,0,0,.064-.4,1.787,1.787,0,0,1-.006-.342c.02-.139.156-.3.152-.419a.355.355,0,0,0-.088-.2l-.071-.1s.269-.185.267-.932l.016.007.133.377.091.11.348.649.448.435.662.446.415.452.042,1.205-.543.7-.089.161a7.723,7.723,0,0,1-1.921-1.367Z" transform="translate(-315.413 -1196.759)" fill="#e5cb7a" fill-rule="evenodd"></path>
          <path id="Path_24880" data-name="Path 24880" d="M509.56,1306.89a.371.371,0,0,1,.133-.247.147.147,0,0,1,.029.088.783.783,0,0,1,.532-.357.547.547,0,0,0,.439-.322l.75-.682.858-.79,1.044-.367.488-.12a.27.27,0,0,1-.009.114,2.376,2.376,0,0,0,.5-.126c.084-.033.163-.046.205,0a.451.451,0,0,1,.075.276c.1-.022.218-.12.312-.11.15.016.283.192.435.192.2,0,.292-.124.432-.221.084-.058.205-.13.273-.179.163-.12,1.888-.647,1.888-.647l.6.04.1.649-.052,1.7-.019.019-2.749,1.436-3.811.584a7.646,7.646,0,0,1-2.436-.838l-.02-.087h0Z" transform="translate(-505.144 -1292.095)" fill="#d8c173" fill-rule="evenodd"></path>
          <path id="Path_24881" data-name="Path 24881" d="M344.85,1571.542c.054-.113.1-.208.111-.242.007.068.019.218.044.377Q344.927,1571.61,344.85,1571.542Z" transform="translate(-341.862 -1557.684)" fill="#f1d789" fill-rule="evenodd"></path>
          <path id="Path_24882" data-name="Path 24882" d="M666.051,1426.416l.493-.137.042.013s.022.013.022.058c.062-.035.114-.029.153-.052.02.042.039.181.126.2a.386.386,0,0,0,.287-.114,1.9,1.9,0,0,1,.292-.214,1.555,1.555,0,0,1,.082.175c.11-.088.3-.446.576-.439a1.037,1.037,0,0,1,.38-.459.827.827,0,0,1,.611-.17,1.045,1.045,0,0,1,.287-.256.264.264,0,0,0,.237.016c.114-.052.243-.256.413-.282a.4.4,0,0,1,.263.055,4.29,4.29,0,0,1,.835-.653c-.013-.04-.039-.188.36-.517.022.02.007.075.022.078a.927.927,0,0,0,.227-.137,1.851,1.851,0,0,1,.446-.267.624.624,0,0,1,.429.064.2.2,0,0,1,.062-.029.809.809,0,0,0,.12-.026.832.832,0,0,1,0,.286.638.638,0,0,0,.13.055.587.587,0,0,1-.152.231c.068.033.077.071.175.1a1.932,1.932,0,0,0-.133.208c-.029.062-.133.318-.179.415s-.114.276-.146.312a2.494,2.494,0,0,1-.234.263c.078-.029.4-.126.532-.163l-.441.654a7.714,7.714,0,0,1-6.315.731Z" transform="translate(-660.279 -1410.961)" fill="#e0cd81" fill-rule="evenodd"></path>
          <path id="Path_24883" data-name="Path 24883" d="M470.086,702.876a.476.476,0,0,0-.137.016c-.022.016.114.049.156.065a.359.359,0,0,1,.156.146,6.663,6.663,0,0,0,.822.377l.565-.029.195-.269-.371-.325.26-.766-.344.055-.828.494-.415.159-.059.078Z" transform="translate(-465.875 -696.006)" fill="#dfc57c" fill-rule="evenodd"></path>
          <path id="Path_24884" data-name="Path 24884" d="M629.052,792.726a.089.089,0,0,0,.078.042.35.35,0,0,1,.269.088c.075.095.283.4.283.4l.5.179.032-.585-.543-.377-.618.227v.029h0Z" transform="translate(-623.599 -785.603)" fill="#e5cc7c" fill-rule="evenodd"></path>
          <path id="Path_24885" data-name="Path 24885" d="M583.779,830.978a.54.54,0,0,0,.205-.036c.114-.042.3-.133.384-.1.114.049.091.2.214.338.075.084.212.081.289.172s.344.049.344.049l.1.546-.406.521-.133.647h-.549l-.5-.2-.247-.6.124-.6.176-.738Z" transform="translate(-578.424 -823.638)" fill="#d2c281" fill-rule="evenodd"></path>
          <path id="Path_24886" data-name="Path 24886" d="M738.954,759.79a.146.146,0,0,0,.042.007.109.109,0,0,0-.036.117c.013.075.055.17.02.227a.284.284,0,0,1,.062.108c.022.064.029.124.175.133a.307.307,0,0,0-.058.046.96.96,0,0,1,.153.169,1.254,1.254,0,0,0,.192-.046l.029.02.062-.026s-.058-.022-.016-.163c.039-.124.075-.117.078-.126a1.289,1.289,0,0,0,.029-.192,2.3,2.3,0,0,0,.035-.276l-.042-.459-.237-.143L739.25,759l-.181.342-.12.119-.009.3.014.033Z" transform="translate(-732.537 -752.423)" fill="#e2c270" fill-rule="evenodd"></path>
          <path id="Path_24887" data-name="Path 24887" d="M806.28,515.894a1.606,1.606,0,0,1,.058.212.206.206,0,0,0,.009-.055s.033.181.039.256c.013,0,.026-.007.029.006a1.091,1.091,0,0,1,.026.241.656.656,0,0,1,.221-.221.386.386,0,0,1,.179-.071c.1,0,.175.064.3.064a2.248,2.248,0,0,0,.751-.28.993.993,0,0,0,.354-.163.923.923,0,0,0,.185-.231c.091-.156.185-.292.28-.309a.587.587,0,0,1-.13.009s.029-.029.078-.068a.3.3,0,0,1,.192-.088c.15,0,.225.022.309.022a.419.419,0,0,0,.133-.022.529.529,0,0,0,.287.062c.2,0,.331.02.435.029s.452-.029.552-.026a.484.484,0,0,1,.188.046l-.322-.936-1.157-1.011-.689.488-1.06,1.06-1.025.38-.214.241v.367Z" transform="translate(-799.293 -508.912)" fill="#ccb360" fill-rule="evenodd"></path>
          <path id="Path_24888" data-name="Path 24888" d="M1023.185,547.249s.029-.029.077-.068a.3.3,0,0,1,.192-.088c.15,0,.225.022.309.022a.42.42,0,0,0,.133-.022.53.53,0,0,0,.287.062c.2,0,.331.02.435.029s.452-.029.552-.026a.481.481,0,0,1,.188.046l-.146-.422-.169-.322-.484-.53-.585-.344s-.2-.055-.2-.055l-.526.318-.477,1.234-.009.26.309.146c.078-.13.163-.234.243-.247-.072.008-.128.008-.128.008h0Z" transform="translate(-1013.897 -540.803)" fill="#d5b457" fill-rule="evenodd"></path>
          <path id="Path_24889" data-name="Path 24889" d="M857.528,733.193c-.046,0-.084-.007-.095-.039-.039-.11-.071-.126-.1-.126s-.078.071-.1.078-.058-.081-.058-.081l-.029-.013a1.765,1.765,0,0,0-.289.241,2.394,2.394,0,0,1-.4.39,4.346,4.346,0,0,1-.494.075.641.641,0,0,0-.234.114c-.016.017.046.035.055.052s-.1.009-.11.026a.424.424,0,0,0,.042.126.214.214,0,0,1,.091-.022c.1,0,.175.064.3.064a2.245,2.245,0,0,0,.751-.28.991.991,0,0,0,.354-.163.929.929,0,0,0,.185-.231,1.657,1.657,0,0,1,.147-.21h0Z" transform="translate(-848.247 -726.658)" fill="#d2b257" fill-rule="evenodd"></path>
          <path id="Path_24890" data-name="Path 24890" d="M381.208,1241.882a1.1,1.1,0,0,0-.267-.348c-.068-.071-.11-.13-.156-.172a2.115,2.115,0,0,0-.263-.2c-.179-.133-.373-.133-.523-.3a2.721,2.721,0,0,1-.446-.793c-.12-.318-.152-.419-.152-.428s.033-.071.075-.062.042.091.053.11a.655.655,0,0,0,.071.091.863.863,0,0,1,.195.283,1.275,1.275,0,0,0-.046-.227s.231.146.428.3.28.205.338.3a4.667,4.667,0,0,0,.26.429,7.356,7.356,0,0,0,.962.358l.426.318.212.464-.166.26-.318.068-.517-.231-.165-.224Z" transform="translate(-376.112 -1228.842)" fill="#d2b159" fill-rule="evenodd"></path>
          <path id="Path_24891" data-name="Path 24891" d="M455.55,1276.88a1.2,1.2,0,0,0,.371.335,3.555,3.555,0,0,0,.945.351,2.646,2.646,0,0,0,.556.084,8,8,0,0,0,1.179-.17,5.659,5.659,0,0,0,.751-.1,3.861,3.861,0,0,0,.841-.312c.205-.095.393-.166.546-.256a2.316,2.316,0,0,1,.552-.309.468.468,0,0,1-.225.286c.095,0,.225-.009.225-.009a4.2,4.2,0,0,0-.348.243c-.137.1-.318.28-.5.4-.12.075-.25.13-.335.175a1.5,1.5,0,0,0-.428.312.188.188,0,0,1,.053,0,1.024,1.024,0,0,0-.3.088.4.4,0,0,0-.15.013c-.062.02-.143.064-.227.088a.287.287,0,0,1-.159.02l.02.039s-.156,0-.208,0c.009,0,.007.007.007.007a.079.079,0,0,0-.026.009.269.269,0,0,1-.081.035c-.016,0-.029,0-.049.007.007.016.058.1.082.156-.02.013-.316.237-.316.237a.223.223,0,0,1,.022.046c.009.029.013.071.022.091.022.039.035.046.035.046s-.035.007-.1.022a1.727,1.727,0,0,1-.208.049.843.843,0,0,1-.084.006.23.23,0,0,1-.036.267c-.107.127-.139.146-.172.227a.366.366,0,0,0-.053-.033.22.22,0,0,1-.1-.071.847.847,0,0,1-.039.124,1.536,1.536,0,0,0-.091.24c-.036-.039-.1-.117-.192-.1s-.163.139-.179.175c0-.022-.016-.039-.02-.013a1,1,0,0,1-.331.576c0-.062,0-.2-.009-.243a.637.637,0,0,1-.247.146c-.185.081-.156.163-.156.163a.408.408,0,0,1,.084-.267c.1-.137.163-.2.163-.212a.058.058,0,0,0-.013-.029c-.013-.013-.039-.029-.039-.039a.264.264,0,0,0,.163-.237.419.419,0,0,0-.11-.263c-.007-.007.062-.055.053-.071s-.091-.071-.1-.1a.3.3,0,0,1,.013-.058.164.164,0,0,0,.013-.068.547.547,0,0,0-.053-.133.723.723,0,0,0,.075,0,.65.65,0,0,1-.062-.124,1.6,1.6,0,0,0-.039-.163c.022,0,.078.006.078,0s-.049-.053-.026-.078a.133.133,0,0,1,.075.053.3.3,0,0,0-.1-.156.238.238,0,0,1,.192.013.258.258,0,0,1,.1.11l.117.088a1.274,1.274,0,0,0,.351.221.364.364,0,0,0,.192.007.294.294,0,0,0,.081-.033.157.157,0,0,1,.029-.013.64.64,0,0,0-.049-.082c.022,0,.049,0,.049,0s.016-.036-.055-.1c.016-.016.036-.026.036-.053a.155.155,0,0,1-.071-.049c.013-.009.033-.039.055-.049-.02-.016-.068-.082-.091-.088a.41.41,0,0,0,.062-.029.758.758,0,0,1-.146-.053.866.866,0,0,0-.12-.084c-.033-.013-.091-.02-.114-.046a.359.359,0,0,0,.084,0c.02,0,.029,0,.035,0s0-.029.049-.035a.242.242,0,0,0,.071-.022.181.181,0,0,1-.1-.055.4.4,0,0,0-.133-.1c-.033-.007-.095.022-.133.02a.12.12,0,0,1-.075-.033,1.1,1.1,0,0,1-.563-.221,1.982,1.982,0,0,1-.481-.386.564.564,0,0,1-.091-.042c-.126-.066-.3-.2-.3-.381h0Z" transform="translate(-451.602 -1265.439)" fill="#c2a44d" fill-rule="evenodd"></path>
          <path id="Path_24892" data-name="Path 24892" d="M1008.535,390.48a.17.17,0,0,1,.078.053.242.242,0,0,1-.039.348.225.225,0,0,0,.126.02.614.614,0,0,0-.166.289.11.11,0,0,0,.049.114.437.437,0,0,0-.088.26,1.059,1.059,0,0,1,.13-.124,3.443,3.443,0,0,1,.322-.221.185.185,0,0,0,.009.068s.169-.139.312-.077c.064.029.035.12.035.12a.15.15,0,0,1,.15.029,2.793,2.793,0,0,1,.194.283,2.059,2.059,0,0,1,.123.17,2.144,2.144,0,0,1,.179.377c0-.068.02-.175.214-.108a1.194,1.194,0,0,1,.6.494c.185.282.231.6.325.722a1.03,1.03,0,0,1,.2.393,3.442,3.442,0,0,0,.166,1.056c.055-.221.139-.711.139-.711l.046-.432.053-1.338-1.4-1.161-1.092-.793-.711.068.045.1h0Z" transform="translate(-999.751 -386.928)" fill="#caa13e" fill-rule="evenodd"></path>
          <path id="Path_24893" data-name="Path 24893" d="M1106.973,235.325s-.02-.13-.348-.351-.585-.218-.822-.4c-.182-.146-.371-.481-.494-.592a.805.805,0,0,1-.139-.425l.4-.338.6-.867.507-.559.243.338.338.4.188.8.068,1.166-.546.837Z" transform="translate(-1095.593 -229.781)" fill="#b59544" fill-rule="evenodd"></path>
          <path id="Path_24894" data-name="Path 24894" d="M1309.211,516.884a1.482,1.482,0,0,0-.064-.523,9.621,9.621,0,0,0-.364-.927c-.036-.2-.009-.214.029-.237a.581.581,0,0,0,.26-.39.37.37,0,0,1,.322-.3l.15-.11.227.569.2.514.062.393.046.335-.108.709-.532.481-.226-.518h0Z" transform="translate(-1297.425 -509.943)" fill="#c89d3a" fill-rule="evenodd"></path>
          <path id="Path_24895" data-name="Path 24895" d="M502.89,1700.455v-.014a.117.117,0,0,0,.029-.026c.009-.013.016-.029.022-.033a.248.248,0,0,1,.108-.02.826.826,0,0,0,.166.039,1.088,1.088,0,0,1,.38-.042c.263.049.325.227.477.329a.3.3,0,0,0,.227.039h.035c.007,0,.055-.055.082-.052.053,0,.058.046.091.049a2.937,2.937,0,0,1,.3-.02.145.145,0,0,1,.095.094.146.146,0,0,1-.036.146.58.58,0,0,0-.175.208.714.714,0,0,1,.058.049,7.654,7.654,0,0,1-1.861-.745Z" transform="translate(-498.532 -1685.616)" fill="#ceb052" fill-rule="evenodd"></path>
          <path id="Path_24896" data-name="Path 24896" d="M1310.68,691.058a4.57,4.57,0,0,0,.276-.409,14.148,14.148,0,0,0-.225-1.907l.594-1.947-.016-.634a5.826,5.826,0,0,1,.1-.839c.082.146.335.322.391.415a4.839,4.839,0,0,0,.1-.958,7.156,7.156,0,0,1,.166.828l.117.507.152.539.17.569.1.393.058.095.049.166.046.179.133.419.078.344.062.624a.956.956,0,0,1,.029.146.6.6,0,0,1-.009.12,1.437,1.437,0,0,1,.013.254.357.357,0,0,1-.095.26,1.573,1.573,0,0,0-.133.521l-.146-.1a.4.4,0,0,0-.039-.254.256.256,0,0,0-.276-.126.833.833,0,0,0-.273.081.855.855,0,0,1-.718.342,1.214,1.214,0,0,0-.373.195,2.079,2.079,0,0,1-.329.173h0Z" transform="translate(-1299.323 -678.846)" fill="#cca847" fill-rule="evenodd"></path>
          <path id="Path_24897" data-name="Path 24897" d="M1310.68,1285.529l.025.015a7.723,7.723,0,0,0,2.461-1.824c-.008-.266-.017-.539-.028-.64-.022-.214-.006-.432-.013-.559s-.078-.64-.11-.773a.336.336,0,0,0-.114-.2,1.579,1.579,0,0,0-.064.312c0,.062-.013.212-.013.25-.009,0-.013-.026-.013-.036-.013.033-.029.091-.036.1s.009-.055,0-.068-.026-.007-.022-.039a.386.386,0,0,1,.009-.058.6.6,0,0,0-.068.205c-.029.146-.029.15-.039.163s-.062.068-.064.088c0,.036.049.071.053.091s-.046.185-.062.26-.009.221-.026.3-.026.108-.071.137c.033.007.064.016.064.016a.485.485,0,0,1-.071.36c-.042.058-.052.084-.1.137a.6.6,0,0,0-.163.28.46.46,0,0,1-.009-.064,3.085,3.085,0,0,0-.195.25c-.075.117-.179.11-.208.139a.139.139,0,0,0-.026.124c-.026.006-.075.016-.108.117a.246.246,0,0,1-.117.139.623.623,0,0,1-.175.055.213.213,0,0,1,.062.02,1.049,1.049,0,0,1-.212.15.443.443,0,0,0-.175.212.151.151,0,0,1-.126.1c.026.016.064.052.084.064a.293.293,0,0,0-.166.082c-.092.076-.124.1-.166.105h0Z" transform="translate(-1299.323 -1270.445)" fill="#c39d3c" fill-rule="evenodd"></path>
          <path id="Path_24898" data-name="Path 24898" d="M1099.551,1777.751a.745.745,0,0,1,.162-.086,3.46,3.46,0,0,1,.507-.124,1.851,1.851,0,0,1,.247-.082c0,.023,0,.045-.007.065a7.672,7.672,0,0,1-.91.226Z" transform="translate(-1090.022 -1762.058)" fill="#d2ba6b" fill-rule="evenodd"></path>
          <path id="Path_24899" data-name="Path 24899" d="M1193.117,803.447a1.611,1.611,0,0,1-.117.371c-.075.143-.156.342-.156.342a.624.624,0,0,1,.016-.133,3.737,3.737,0,0,0-.39.247,1.316,1.316,0,0,0-.192.2,3.987,3.987,0,0,0,.137-.419,8.418,8.418,0,0,0-.766.673l-.717.58a2.472,2.472,0,0,1-.255.119c-.123.052-.269.1-.377.139a.6.6,0,0,1,.139-.212,1.555,1.555,0,0,0,.3-.39.354.354,0,0,0,0-.263c-.036.009-.117.013-.172.029a.335.335,0,0,0-.114.075,2.691,2.691,0,0,1,.133-.468c-.068,0-.185.022-.185.022a1.667,1.667,0,0,1,.442-.464,1.432,1.432,0,0,0-.25.077c-.163.068-.342.17-.474.225a10.444,10.444,0,0,0,.914-1.554,5.4,5.4,0,0,0,.5-1.251,5.683,5.683,0,0,0,.036-.7,4.738,4.738,0,0,0,.02-.607,1.444,1.444,0,0,1,.4,1.024,3.92,3.92,0,0,1-.611,1.963c.078.022.28.049.488-.312a4.237,4.237,0,0,0,.28-.611.544.544,0,0,1,.006.1,2.752,2.752,0,0,0,.446-.828,1.141,1.141,0,0,1-.02.737.73.73,0,0,1-.276.409.619.619,0,0,0,.192-.082c.02.049.016.1.049.124s.078.053.084.084a.968.968,0,0,0,.108-.17,3.591,3.591,0,0,0,.026.79.267.267,0,0,0,.276-.2.812.812,0,0,0-.016.439.515.515,0,0,0,.1-.1h0Z" transform="translate(-1179.807 -793.147)" fill="#c0993a" fill-rule="evenodd"></path>
          <path id="Path_24900" data-name="Path 24900" d="M858.638,350.746a.775.775,0,0,1-.273.042c-.15,0-.108-.058-.342-.058-.36,0-1.618.208-1.839.205a4.846,4.846,0,0,0,.484.062l1.6.022.322-.026.12-.243Z" transform="translate(-848.743 -347.691)" fill="#a88f33" fill-rule="evenodd"></path>
          <path id="Path_24901" data-name="Path 24901" d="M602.463,680.939a1.828,1.828,0,0,0-.292.276,2.039,2.039,0,0,1-.231.3.2.2,0,0,0,.068-.009s0,.026-.016.033a.092.092,0,0,1,.075.026.134.134,0,0,0-.046.188.2.2,0,0,0,.143.077s-.022.064.071.058a5.318,5.318,0,0,1,.53-.075.29.29,0,0,1,.237.163c.078.126.146.146.146.146a.746.746,0,0,0,.036-.292.869.869,0,0,0,.062-.3l-.068-.5-.3-.377-.386.214-.029.075Z" transform="translate(-596.724 -674.752)" fill="#e3c571" fill-rule="evenodd"></path>
          <path id="Path_24902" data-name="Path 24902" d="M704.64,477.254s.029.068.15.075a.068.068,0,0,0-.009.055l.006.055a.122.122,0,0,0,.036-.026c.007.029-.007.075,0,.108a.241.241,0,0,0,.02.058l.007-.013a.518.518,0,0,0,.091.13.054.054,0,0,1,.006-.026.092.092,0,0,0,.016.046.046.046,0,0,1-.013-.009,1.5,1.5,0,0,0,.042.315.144.144,0,0,0,.016-.022c0-.007,0,.058-.009.1a.456.456,0,0,0,0,.11.346.346,0,0,1,.077-.046.281.281,0,0,0,.143-.172,1.146,1.146,0,0,0,.053-.188.261.261,0,0,1,.026.078c0,.033.065.016.065.016l.013-.143.078-.325.071-.2.342-.532.618-.476.539.124.455-.618-.783-.471-.741.078-.673.932-.539.845-.1.139h0Z" transform="translate(-698.534 -471.142)" fill="#d8b65b" fill-rule="evenodd"></path>
          <path id="Path_24903" data-name="Path 24903" d="M793.32,403.806a.854.854,0,0,0-.179.078c-.133.069-.225.091-.276.192a.5.5,0,0,0-.055.181,1.256,1.256,0,0,1,.143-.053c.055-.013.117-.009.11.013a.151.151,0,0,1-.026.042s.1,0,.1.049a.271.271,0,0,1-.039.133c-.02.026-.1.064-.11.095-.022.062.009.064,0,.114a.79.79,0,0,1-.195.309,1.657,1.657,0,0,0-.208.283,1.8,1.8,0,0,1-.108-.247c-.026.013-.166.091-.166.091l-.323-1.126.006-.075a.2.2,0,0,0,.036-.1c-.049-.016-.055-.029-.12-.091a.8.8,0,0,0-.225-.188.143.143,0,0,0-.114-.084c-.079-.016-.126-.029-.126-.029a.138.138,0,0,0,.062-.049.814.814,0,0,1-.195.02.815.815,0,0,0-.179,0c-.059.009-.13.036-.156-.055-.029-.022-.091,0-.143.075s-.071.139-.172.17a.353.353,0,0,1-.046.126,1.454,1.454,0,0,1-.137.17c-.1.114-.082.3-.237.446s.026-.4.026-.4l.25-.6.711-.7,1.1-.075.108.572.539.185.34.519h0Z" transform="translate(-783.331 -399.042)" fill="#d3ae4d" fill-rule="evenodd"></path>
          <path id="Path_24904" data-name="Path 24904" d="M1010.391,404.17l-.464-.669-.325-.25s-.231-.426-.247-.439a3.058,3.058,0,0,0-.371-.042l.026.064a.171.171,0,0,1,.078.053.242.242,0,0,1-.039.348.225.225,0,0,0,.126.02.614.614,0,0,0-.166.289.11.11,0,0,0,.049.114.438.438,0,0,0-.088.26,1.052,1.052,0,0,1,.13-.124,3.372,3.372,0,0,1,.322-.221.185.185,0,0,0,.009.068s.17-.139.312-.078c.064.029.035.12.035.12a.15.15,0,0,1,.15.029,2.783,2.783,0,0,1,.195.283c.02.029.071.084.123.169a2.145,2.145,0,0,1,.179.377c0-.053.013-.126.1-.126l-.138-.247Z" transform="translate(-1000.227 -399.28)" fill="#caa13e" fill-rule="evenodd"></path>
          <path id="Path_24905" data-name="Path 24905" d="M368.48,620.526a.453.453,0,0,1,0-.241,2.42,2.42,0,0,0,.1-.468,1.669,1.669,0,0,1,.17-.526l.422-.192.3.081.088.4-.377.208a.29.29,0,0,1-.126.159c-.107.071-.254.126-.289.2a.578.578,0,0,0-.046.139.2.2,0,0,0-.172.049.252.252,0,0,0-.068.192Z" transform="translate(-365.273 -613.735)" fill="#f4efc8" fill-rule="evenodd"></path>
          <path id="Path_24906" data-name="Path 24906" d="M338.208,493.906a.192.192,0,0,0-.062.078,1.584,1.584,0,0,1-.091-.517c0-.225-.016-.28.036-.358s.256-.159.227-.3a.218.218,0,0,0-.3-.15c-.1.026-.181.247-.289.358-.082.084-.179.071-.205.117-.036.062,0,.124-.013.163a.787.787,0,0,1-.095.17,1.7,1.7,0,0,0-.348.634,1.084,1.084,0,0,1,.036-.263l-.02-.033.13-.426.084-.351.188-.588.331-.6.322-.36.335.022.039.5.192.945.4.5-.647.435-.256.022h0Z" transform="translate(-334.149 -487.221)" fill="#ebcc73" fill-rule="evenodd"></path>
          <path id="Path_24907" data-name="Path 24907" d="M461.583,702.962a.164.164,0,0,1-.075,0c-.02-.01-.039-.022-.033-.036s.042-.035.042-.046a.037.037,0,0,0-.033-.039.036.036,0,0,0-.039.016.148.148,0,0,0-.053-.026l.042,0a.408.408,0,0,0-.114-.033c.033-.02.1-.078.139-.078s.068-.006.062-.029a.134.134,0,0,0-.075-.068c.013-.016.022-.039-.009-.1a.125.125,0,0,1-.009-.123.83.83,0,0,1,.058-.078.212.212,0,0,1,.055-.068.692.692,0,0,1,.1-.042c.046-.016.084-.036.11-.016a.036.036,0,0,1,.016.046.237.237,0,0,1,.172.009,1.305,1.305,0,0,0,.28.064l.071.143-.471.4-.195.1-.039.007h0Z" transform="translate(-457.322 -696.099)" fill="#e5c66b" fill-rule="evenodd"></path>
          <path id="Path_24908" data-name="Path 24908" d="M492.759,606.238a1.826,1.826,0,0,0-.179.133c.02,0,.053.016.039.036a2.116,2.116,0,0,0-.163.153,1.006,1.006,0,0,0-.126.185.667.667,0,0,1-.221.152c.108,0,.325-.133.406-.133a.08.08,0,0,0,.068.088.511.511,0,0,0,.358-.081c.179-.108.12-.188.195-.241.143-.095.2-.179.28-.231a.512.512,0,0,1,.12-.064s0-.039.026-.035a.035.035,0,0,1,.029.022.806.806,0,0,1,.312-.124.018.018,0,0,1-.009-.009s.013-.007.016-.013.009-.013.016-.007.016.055.029.075c.029-.013.084-.137.084-.137l.133-.38v-.347l-.1.02-.78.331-.473.49-.055.117Z" transform="translate(-487.846 -600.035)" fill="#e6bd62" fill-rule="evenodd"></path>
          <path id="Path_24909" data-name="Path 24909" d="M705.425,486.884a.442.442,0,0,0,.12-.049.541.541,0,0,1-.084.188,1.586,1.586,0,0,0-.126.218c-.055.108-.062.263-.114.331a.24.24,0,0,1,.075-.022.347.347,0,0,0-.075.095.449.449,0,0,1-.159.212,1.263,1.263,0,0,0-.354.247c-.133.143-.269.325-.338.39a.974.974,0,0,0,.1-.267c.013-.081,0-.179.02-.287a.937.937,0,0,1,.13-.373,6.39,6.39,0,0,0,.292-.841l.4-.126.12.284h0Z" transform="translate(-698.266 -482.383)" fill="#b6933f" fill-rule="evenodd"></path>
          <path id="Path_24910" data-name="Path 24910" d="M772.075,398.613a1.107,1.107,0,0,0-.152.325c-.033.152,0,.139-.022.214a.281.281,0,0,0,0,.139.5.5,0,0,1,.165-.163,1.356,1.356,0,0,0,.26-.175.957.957,0,0,1,.221-.241c-.049-.007-.117-.029-.13-.026a2.94,2.94,0,0,1,.342-.241,1.319,1.319,0,0,1,.373-.25,1.607,1.607,0,0,1-.179,0c.026-.055.117-.082.208-.172s-.058-.225-.058-.225l-.693.419-.335.394Z" transform="translate(-765.203 -394.353)" fill="#c49937" fill-rule="evenodd"></path>
          <path id="Path_24911" data-name="Path 24911" d="M576,155.235l.016-.126.2-.318.208-.559v-.764l-.016-.442.033-.289.025-.092.026-.036.169.088.234.318.022.614-.227.969-.649.709Z" transform="translate(-571.009 -151.288)" fill="#dfc068" fill-rule="evenodd"></path>
          <path id="Path_24912" data-name="Path 24912" d="M338.309,148.137s-.1,0-.126.435-.033.66-.049.874a4.7,4.7,0,0,1-.071.471,1.294,1.294,0,0,1-.088.4.928.928,0,0,1-.212.316,1.305,1.305,0,0,1-.4.221,2.048,2.048,0,0,0-.471.108.715.715,0,0,0-.195.124,2.483,2.483,0,0,0-.523.708,9.872,9.872,0,0,0-.468,1.764l.053-.088a.836.836,0,0,1,.124-.322c.114-.205.082-.435.241-.828a4.515,4.515,0,0,1,.234-.51,1.894,1.894,0,0,1,.514-.627,1.625,1.625,0,0,1,.627-.25l.354-.234s.062-.12.143-.256a1.66,1.66,0,0,0,.292-.718,6.654,6.654,0,0,0-.062-1.037c.007-.273.009-.475.064-.523s.016-.03.016-.03h0Z" transform="translate(-332.801 -146.85)" fill="#a88f33" fill-rule="evenodd"></path>
          <path id="Path_24913" data-name="Path 24913" d="M631.516,148.267a5.023,5.023,0,0,0,.227-.724c.013-.068.039-.137.046-.192a1.735,1.735,0,0,0,0-.631,1.126,1.126,0,0,0-.225-.338c-.064-.095-.095-.13-.081-.15a.146.146,0,0,1,.114-.049.391.391,0,0,1,.28.13,1.7,1.7,0,0,1,.181.514l.084.524.214.66-.841.256h0Z" transform="translate(-626.008 -144.916)" fill="#c99e3d" fill-rule="evenodd"></path>
          <path id="Path_24914" data-name="Path 24914" d="M662.94,154.685a.133.133,0,0,1-.081,0,.117.117,0,0,1-.053.11,4.44,4.44,0,0,0-.572.022.439.439,0,0,1-.315-.36c-.053-.212.039-.5.009-.7a4.273,4.273,0,0,0-.117-.426c-.007-.088-.013-.11-.013-.166a.305.305,0,0,0-.075-.016c-.007-.026.007-.049-.022-.095a.523.523,0,0,1,.25.139.468.468,0,0,1,.12.153,1.223,1.223,0,0,1,.247.292c.068.136.2.569.231.64a.47.47,0,0,0,.078.124c.076.095.188.251.314.277h0Z" transform="translate(-655.966 -151.734)" fill="#b58634" fill-rule="evenodd"></path>
          <path id="Path_24915" data-name="Path 24915" d="M706.47,187.5a3.642,3.642,0,0,1,.214.4,1.815,1.815,0,0,0,.221.435c-.053-.152-.146-.452-.2-.559a1.282,1.282,0,0,0-.234-.276h0Z" transform="translate(-700.348 -185.875)" fill="#a88f33" fill-rule="evenodd"></path>
          <path id="Path_24916" data-name="Path 24916" d="M449.187,436.89a1.921,1.921,0,0,0-.38.163c-.082.042-.159.077-.234.11a4.082,4.082,0,0,1-.569.214l.02.022a.166.166,0,0,0,.036.1c-.02.02-.283.2-.205.8.053-.02.114-.046.123-.046s.02.046.039.046a.264.264,0,0,0,.152-.114.888.888,0,0,0,.17.634c.039-.046.139-.2.139-.2l0-.049a1.319,1.319,0,0,1,.064-.325.863.863,0,0,1,.163-.27l.562-.8-.084-.283h0Z" transform="translate(-443.96 -433.104)" fill="#e6c367" fill-rule="evenodd"></path>
          <path id="Path_24917" data-name="Path 24917" d="M532.2,357.464a.31.31,0,0,1-.084.042.325.325,0,0,1,.055-.256,3.427,3.427,0,0,0,.344-.442.959.959,0,0,1,.335-.592c.315-.283.439-.38.439-.38l.51-.256.627.247-.312,1.221-.242.572-.962-.181-.712.025h0Z" transform="translate(-527.495 -352.499)" fill="#dcba5a" fill-rule="evenodd"></path>
          <path id="Path_24918" data-name="Path 24918" d="M585,437.8l.12-.15v-.107a.68.68,0,0,0,.276-.181c.143-.146.342-.426.517-.409s.192.38.2.481a2.764,2.764,0,0,0,.064.455c.039.124-.426.591-.426.591l-.316.241L585,437.8Z" transform="translate(-579.931 -433.168)" fill="#e9ce77" fill-rule="evenodd"></path>
          <path id="Path_24919" data-name="Path 24919" d="M627.73,529.673s.1-.152.026-.185a1.122,1.122,0,0,1,.12-.195.983.983,0,0,1,.234-.3,1.016,1.016,0,0,0,.318-.393,1.037,1.037,0,0,0,.029-.225.425.425,0,0,0,.062.042.367.367,0,0,1,.146.354.58.58,0,0,1-.1.322,1.543,1.543,0,0,1-.139.124c-.062.042-.084.091-.188.095a.124.124,0,0,1,.036-.02.242.242,0,0,0-.166.039c-.058.052-.181.214-.243.263l-.13.084h0Z" transform="translate(-622.29 -523.791)" fill="#cdae50" fill-rule="evenodd"></path>
          <path id="Path_24920" data-name="Path 24920" d="M683.839,342.7a1.583,1.583,0,0,0-.484-.095c-.276-.009-.68.007-1.075.009-.426,0-.812-.146-1.349-.172-.088-.053-.312-.283-1.011.205.042,0,.507-.108.669.095a.814.814,0,0,1,.095.624c-.042.181-.179.446-.234.631s-.042.283-.082.413-.126.195-.075.344c.068-.042.1-.042.218-.3s.091-.439.28-.656a4.274,4.274,0,0,1,.611-.592,2.278,2.278,0,0,1,2.024-.1c.235-.025.411-.412.411-.412h0Z" transform="translate(-674.028 -339.38)" fill="#d2a83e" fill-rule="evenodd"></path>
          <path id="Path_24921" data-name="Path 24921" d="M587.637,350.072a.123.123,0,0,0-.006-.029.211.211,0,0,0-.036-.053,1.686,1.686,0,0,0-.348-.029c-.205.022-.39.276-.477.406a2.4,2.4,0,0,1-.312.435.044.044,0,0,0-.007-.029s.007.009-.007.022-.013.02-.007.026l.02.02a1.612,1.612,0,0,0,.435-.312,2.192,2.192,0,0,1,.569-.406.8.8,0,0,1,.175-.052h0Z" transform="translate(-581.352 -346.926)" fill="#c29637" fill-rule="evenodd"></path>
          <path id="Path_24922" data-name="Path 24922" d="M1080.611,248.94s-.042.053-.095.11c-.117.124-.269.263-.4.406s-.263.243-.419.422-.338.377-.384.435a.428.428,0,0,0-.075.2l-.049-.033a.328.328,0,0,0,.039.058c.033.046.084.1.11.139a.425.425,0,0,1,.068.15c.016,0,.117.022.243-.185s.292-.435.292-.435l.263-.39.166-.331.208-.371.032-.176h0Z" transform="translate(-1069.838 -246.783)" fill="#ac8132" fill-rule="evenodd"></path>
          <path id="Path_24923" data-name="Path 24923" d="M1225.219,218.3a2,2,0,0,0-.221.208c-.062.078-.208.283-.208.283l.053-.007.267-.237.1-.185.005-.062Z" transform="translate(-1214.177 -216.408)" fill="#a88f33" fill-rule="evenodd"></path>
          <path id="Path_24924" data-name="Path 24924" d="M1268.581,1147.863a.274.274,0,0,1,.058-.172,1.25,1.25,0,0,0,.371-.514,3.405,3.405,0,0,0,.17-.435,1.907,1.907,0,0,1-.442.289c.039-.082.062-.139.082-.182-.022-.02-.117-.042-.126-.052.052-.053.081-.181.188-.267.137-.1.386-.283.581-.442a3.879,3.879,0,0,0,.624-.638.237.237,0,0,1,.035.068s-.192.25-.292.409a.389.389,0,0,0-.082.214l.182-.078s.052.195-.185.49c.1-.039.146-.016.2-.049a.921.921,0,0,0-.357.377,1.625,1.625,0,0,1-.576.669,4.78,4.78,0,0,0-.435.31h0Z" transform="translate(-1257.587 -1135.524)" fill="#a67a2e" fill-rule="evenodd"></path>
          <path id="Path_24925" data-name="Path 24925" d="M1128.531,295.37a1.45,1.45,0,0,0-.124.4c0,.042-.013.075-.013.124a1.507,1.507,0,0,1-.026.413.218.218,0,0,0-.033-.068c-.02.055-.055.227-.084.292a1.371,1.371,0,0,1-.039-.36c0-.172.007-.205.007-.241a1.061,1.061,0,0,1-.055.166c-.02-.035-.042-.081-.068-.12a.754.754,0,0,1-.053.084c0-.016-.009-.058-.013-.117a1.661,1.661,0,0,1,0-.175.792.792,0,0,1,.179-.3,2.523,2.523,0,0,0,.325-.536c.042-.091.221-.468.221-.468h.137l-.2.452s-.12.247-.181.338-.192.351-.25.452c.042-.055.078-.084.12-.137a2.179,2.179,0,0,0,.154-.2h0Z" transform="translate(-1118.25 -291.908)" fill="#8c6228" fill-rule="evenodd"></path>
          <path id="Path_24926" data-name="Path 24926" d="M1202.869,216.32a.57.57,0,0,1-.1.188c-.082.1-.256.227-.342.331a.9.9,0,0,0-.163.7,1.182,1.182,0,0,1,.205-.371,2.848,2.848,0,0,0,.338-.484.813.813,0,0,0,.077-.256l.026-.033-.016-.075-.022-.005Z" transform="translate(-1191.824 -214.445)" fill="#cba94c" fill-rule="evenodd"></path>
          <path id="Path_24927" data-name="Path 24927" d="M1394.358,510.482a1.434,1.434,0,0,1-.068-.273c-.016-.13.026-.156-.022-.3-.029-.091-.081-.078-.095-.091a.775.775,0,0,1-.02-.225.843.843,0,0,0-.016-.214c-.02-.016-.033-.029-.062-.126a1.392,1.392,0,0,0-.064-.175c-.016-.029-.062-.055-.062-.084,0-.058.053-.088.053-.1,0-.033-.042-.007-.053-.016s.033-.11.016-.124-.053.049-.064.033-.029-.172-.053-.276-.046-.175-.049-.205-.182-.539-.225-.663a3.151,3.151,0,0,1-.088-.318,1.644,1.644,0,0,0-.029-.175c-.007.013,0,.078-.013.075s-.042-.227-.052-.263a1.835,1.835,0,0,1-.078-.243c-.013-.088-.042-.318-.062-.475s-.029-.221-.029-.26a1.619,1.619,0,0,0-.016-.287,2.676,2.676,0,0,0-.124-.484c-.088-.221-.322-.786-.364-.927,0-.036.046-.016.046-.016s.114.287.2.507a3.4,3.4,0,0,0,.179.435,1.633,1.633,0,0,1,.195.591c.055.355.075.682.108.9a2.338,2.338,0,0,0,.062.325c.035.12.091.243.163.432a2.873,2.873,0,0,1,.133.406c.029.146.029.256.046.329s.04.185.095.364.137.409.192.552a3.05,3.05,0,0,1,.172.653,6.284,6.284,0,0,1,.05.723h0Z" transform="translate(-1380.651 -499.888)" fill="#a88f33" fill-rule="evenodd"></path>
          <path id="Path_24928" data-name="Path 24928" d="M1250.031,213.013l-.006.016a.028.028,0,0,1,.016.033.776.776,0,0,1-.006.108c-.007.046-.02.081-.022.11a.554.554,0,0,1-.078.309c-.026.049-.042.091-.055.12a.354.354,0,0,1-.068.114c.046-.026.212-.13.3-.114a.616.616,0,0,0-.2.181.453.453,0,0,0,.156,0,2.17,2.17,0,0,1,.452-.064c.156.009.095-.188.095-.188l-.181-.4-.342-.24-.054.013Z" transform="translate(-1238.98 -211.154)" fill="#be9c44" fill-rule="evenodd"></path>
          <path id="Path_24929" data-name="Path 24929" d="M1276.38,191.924a1.216,1.216,0,0,1-.214-.676,12.183,12.183,0,0,1-.049-1.3l-.124-.3a.7.7,0,0,0-.091-.276c-.065-.075-.192-.2-.25-.263s-.124-.146-.163-.159a.451.451,0,0,1,.446-.221.473.473,0,0,1,.477.254,2.485,2.485,0,0,1,.254.927,3.18,3.18,0,0,1-.055,1.424,1.449,1.449,0,0,1-.231.593Z" transform="translate(-1264.437 -187.092)" fill="#a17c34" fill-rule="evenodd"></path>
          <path id="Path_24930" data-name="Path 24930" d="M1316.583,588.175a.259.259,0,0,0,.146-.033.411.411,0,0,0,.36-.152.307.307,0,0,1-.029.241.552.552,0,0,1,.088-.055.83.83,0,0,1-.146.563.23.23,0,0,1,.169-.062.669.669,0,0,1-.058.422.171.171,0,0,1-.169.058.347.347,0,0,0,0-.055c0-.036-.016-.071-.007-.095a.472.472,0,0,1-.137-.095.853.853,0,0,1-.273-.429.169.169,0,0,1,.124-.185.151.151,0,0,1-.029-.036.2.2,0,0,0-.039-.087Z" transform="translate(-1305.119 -582.895)" fill="#8c6228" fill-rule="evenodd"></path>
          <path id="Path_24931" data-name="Path 24931" d="M1201.192,295.644s-.007-.009-.042.033c.007-.042.013-.082.016-.12a.415.415,0,0,1,.064-.1c-.02.039-.033.075-.033.075a.529.529,0,0,1,.12-.146c.049-.039.11-.058.137-.095a.242.242,0,0,0,.029-.053.817.817,0,0,0,.163-.166c.013-.016.033-.033.046-.049s.075-.033.137-.064.137-.084.181-.1c.088-.039.181-.035.225-.1.033-.009.068-.108.062-.192a.8.8,0,0,1,.384.514,1.86,1.86,0,0,1-.095.79,1.207,1.207,0,0,1-.117.393c-.082.108-.344.26-.409.335s-.221.218-.214.331c.007.084.11.13.133.146s.022.036.064.026.058-.029.075-.029.02.007.029.007l.02,0s-.006.12-.286.156c-.02,0-.039.009-.064.013a.16.16,0,0,0,.088-.064c-.039-.007-.153-.013-.182-.022a.348.348,0,0,1,.064-.078c.022-.02,0-.026-.022-.016a1.067,1.067,0,0,0-.1.075.944.944,0,0,1-.114.1.256.256,0,0,1,.049-.225c-.016,0-.046.049-.075.039a.42.42,0,0,1,.009-.143.655.655,0,0,1,.1-.163l.413-.738.088-.559-.945.184h0Z" transform="translate(-1190.742 -292.017)" fill="#92723a" fill-rule="evenodd"></path>
          <path id="Path_24932" data-name="Path 24932" d="M1164.629,409.669s-.022.016.022.046a.513.513,0,0,1-.042.064c-.022.026-.046.042-.055.064a.359.359,0,0,0-.035.1.479.479,0,0,1-.062.227.963.963,0,0,0-.058.11.819.819,0,0,0-.068.13,1.348,1.348,0,0,0-.022.172l.039-.049a.372.372,0,0,1-.058.095c.016-.013.062-.046.139-.114a3.445,3.445,0,0,1,.481-.364.706.706,0,0,1-.156.029c.033-.033.329-.38.484-.413a.061.061,0,0,0,.013-.042l-.133-.013-.269.058-.039-.208-.18.109Z" transform="translate(-1154.201 -406.011)" fill="#b18e3e" fill-rule="evenodd"></path>
          <path id="Path_24933" data-name="Path 24933" d="M1198.267,385.762a.365.365,0,0,0-.068.124.418.418,0,0,1-.064-.088.226.226,0,0,0-.3-.126.553.553,0,0,1,0-.124.682.682,0,0,0,.205-.181.842.842,0,0,0,.159-.256c.026-.02.071-.053.13-.091.084-.058.185-.137.2-.225a.538.538,0,0,1-.25.049c.049-.022.124-.046.114-.143l.036-.022a.13.13,0,0,0-.046-.007c0-.009-.007-.022-.029-.016s-.026.007-.029.016a.14.14,0,0,0-.062.016.962.962,0,0,1-.108.077l.022-.039a.458.458,0,0,0-.11.026,2.305,2.305,0,0,0-.28.133c.009-.016.013-.026.02-.029s.022-.007.022-.009a.1.1,0,0,1,0-.035,1.2,1.2,0,0,1,.1-.179.348.348,0,0,0,.055-.15l.2-.1.565-.13.367.022-.046.254-.217.443-.185.4-.212.247-.195.142h0Z" transform="translate(-1187.411 -380.92)" fill="#543e26" fill-rule="evenodd"></path>
          <path id="Path_24934" data-name="Path 24934" d="M1203.653,355.489a3.291,3.291,0,0,1-.283.315c.039-.084.283-.585.371-.724-.02-.016-.046-.016.016-.26-.052.124-.071.188-.114.221a.081.081,0,0,1-.078.022.055.055,0,0,0,.006-.033s-.185-.022-.312-.022a1.865,1.865,0,0,0-.517.124,2.108,2.108,0,0,0-.212.075c-.039.033-.062.068-.082.078s-.091.033-.108.058-.042.055-.042.062-.007.016.013.009.055-.029.11-.062c.075-.042.166-.091.231-.12a1.072,1.072,0,0,1,.331-.078,2.067,2.067,0,0,1,.3-.053,2.5,2.5,0,0,1,.28.007c-.016.013-.029.029-.022.084a.4.4,0,0,1-.026.071c-.039.108-.114.287-.156.377-.058.123-.124.227-.156.292a2.121,2.121,0,0,1-.175.325c-.071.091-.108.146-.13.166s-.181.137-.17.179a.878.878,0,0,0,.344-.227,2.77,2.77,0,0,1,.263-.322.88.88,0,0,0,.234-.331,1.439,1.439,0,0,1,.083-.231h0Z" transform="translate(-1191.88 -351.745)" fill="#806031" fill-rule="evenodd"></path>
          <path id="Path_24935" data-name="Path 24935" d="M776.385,664.764a.413.413,0,0,1-.095.179c-.064.058-.179.108-.192.205s.114.146.114.146a.506.506,0,0,0-.071.205,1.353,1.353,0,0,0,.007.195.087.087,0,0,0-.026.026.214.214,0,0,0,.071.137c.065.053.12.084.152.071a.32.32,0,0,1,.013.033s.049-.124.082-.231.062-.095.075-.243a1.426,1.426,0,0,1,.156-.4l.1-.218-.159-.124-.225.024Z" transform="translate(-769.372 -658.98)" fill="#b6903c" fill-rule="evenodd"></path>
          <path id="Path_24936" data-name="Path 24936" d="M806.294,692.2a.955.955,0,0,0-.091.108.316.316,0,0,1-.137.133c-.062.022-.1.022-.1.084s.062.088.095.12a.154.154,0,0,1,.049.15.15.15,0,0,0,.088-.091c.033-.071.263-.5.263-.5h-.169Z" transform="translate(-798.985 -686.202)" fill="#685026" fill-rule="evenodd"></path>
          <path id="Path_24937" data-name="Path 24937" d="M804.035,539.487a.13.13,0,0,0,0-.091c-.02-.039-.139-.053-.2-.1a.235.235,0,0,0-.2-.058c.009-.022.046-.071.016-.082a.356.356,0,0,0-.166.062c-.029.022-.095.049-.108.064s-.036.046-.049.033-.02-.033-.042-.02a.534.534,0,0,0-.15.152.78.78,0,0,1-.2.3c-.134.13-.192.214-.153.263s.058.013.064.055a.355.355,0,0,1-.007.124c-.016.068-.042.133-.007.146.091.029.179-.026.2-.009.039.035-.022.163.071.188a.29.29,0,0,0,.188-.022l.344-.185.331-.175.169-.335-.091-.28-.017-.029Z" transform="translate(-795.82 -534.486)" fill="#d4b968" fill-rule="evenodd"></path>
          <path id="Path_24938" data-name="Path 24938" d="M907.957,552.413a.138.138,0,0,1,.013-.166c.071-.078.172-.11.212-.159a.061.061,0,0,0-.029-.02.261.261,0,0,1,.114-.108.11.11,0,0,0-.075-.035c-.064,0-.1.039-.163.039s-.064-.029-.064-.029.1-.009.088-.053-.026-.046-.026-.046a.985.985,0,0,0,.221-.12.241.241,0,0,0,.036-.11c.022,0,.152-.068.205-.039s.016.108.016.108a1.3,1.3,0,0,0,.24-.237c.071.007.1-.049.156-.049s.166.088.185.276a1.181,1.181,0,0,1,.013.36,1.66,1.66,0,0,0,.026.452c.022.091.075.082.075.082a.148.148,0,0,1-.046.071.22.22,0,0,0-.036.152.647.647,0,0,0,.02.071.329.329,0,0,0-.053.082.092.092,0,0,1-.084.055.408.408,0,0,0-.058,0c-.042,0-.055.009-.082,0s-.046-.02-.035-.1-.325-.28-.325-.28l-.546-.195h0Z" transform="translate(-900.067 -546.612)" fill="#cca849" fill-rule="evenodd"></path>
          <path id="Path_24939" data-name="Path 24939" d="M838.091,706.375s.12.159.611.159a1.236,1.236,0,0,0,.364-.036.994.994,0,0,0,.448-.325c.179-.212.139-.3.139-.3l-.1-.016-.338.046-1,.426-.121.043Z" transform="translate(-830.828 -699.743)" fill="#585136" fill-rule="evenodd"></path>
          <path id="Path_24940" data-name="Path 24940" d="M831.736,670.756s-.426.095-.426-.175a.937.937,0,0,1,.329-.588,1.234,1.234,0,0,1,.231-.1h.393l.075.2-.033.429-.569.239Z" transform="translate(-824.106 -664.085)" fill="#252211" fill-rule="evenodd"></path>
          <path id="Path_24941" data-name="Path 24941" d="M855.845,676.1s-.081-.075-.267.026a.668.668,0,0,0-.344.5c-.009.169.139.3.371.3a1.179,1.179,0,0,0,.329-.026l-.082-.1-.007-.7h0Z" transform="translate(-847.823 -670.213)" fill="#c3b378" fill-rule="evenodd"></path>
          <path id="Path_24942" data-name="Path 24942" d="M864.783,683.549s-.02-.016-.078.016a1.267,1.267,0,0,0-.175.143.709.709,0,0,0-.078.064c-.082.1-.15.256-.11.335s.17.17.5.108l-.061-.666h0Z" transform="translate(-856.841 -677.622)" fill="#e6d89c" fill-rule="evenodd"></path>
          <path id="Path_24943" data-name="Path 24943" d="M869.086,659.367a.419.419,0,0,0-.053.212.349.349,0,0,0,.351.36c.212.013.354-.3.507-.429a.369.369,0,0,1,.188-.1,1.743,1.743,0,0,0-.439-.3.647.647,0,0,0-.861.068c.091-.007.384-.082.384-.082l.143.046-.221.22h0Z" transform="translate(-861.252 -653.277)" fill="#252211" fill-rule="evenodd"></path>
          <path id="Path_24944" data-name="Path 24944" d="M943.727,694.269c-.009-.02-.016-.046.022-.052s.055,0,.068.026.026.053.006.064a.091.091,0,0,1-.1-.038Zm-.062-.185s-.013.009-.007-.009.02-.062.062-.052.033.055.026.068a.068.068,0,0,1-.068.026.022.022,0,0,1-.015-.013.022.022,0,0,1,0-.02Z" transform="translate(-935.48 -688.006)" fill="#6f674d" fill-rule="evenodd"></path>
          <path id="Path_24945" data-name="Path 24945" d="M534,662.425a.406.406,0,0,0,.225.075.609.609,0,0,0,.344-.205c.042-.046.078-.095.117-.133a.7.7,0,0,0,.071-.071c.022-.026.046-.075.058-.091a1.209,1.209,0,0,1-.114.088,1.357,1.357,0,0,1-.17.088c-.035.013-.4.208-.4.208l-.127.041Z" transform="translate(-529.373 -656.264)" fill="#ac924c" fill-rule="evenodd"></path>
          <path id="Path_24946" data-name="Path 24946" d="M552.34,586.271a.528.528,0,0,1,.17-.065,3.163,3.163,0,0,1,.325-.046l.179.078.071.269-.13.28-.166.1-.188-.3-.26-.318h0Z" transform="translate(-547.554 -581.081)" fill="#9f8e57" fill-rule="evenodd"></path>
          <path id="Path_24947" data-name="Path 24947" d="M518.262,531.05l-.062.046a.4.4,0,0,0,.029-.117,1.084,1.084,0,0,1,.181-.426,1.33,1.33,0,0,1,.1-.117.066.066,0,0,0-.053.013.629.629,0,0,1,.181-.185c.084-.052.117-.068.205-.026s.11.064.175.062a.2.2,0,0,0,.12-.071s.013.042-.035.139a1.961,1.961,0,0,1-.241.3l-.4.273-.2.113h0Z" transform="translate(-513.71 -525.62)" fill="#eac970" fill-rule="evenodd"></path>
          <path id="Path_24948" data-name="Path 24948" d="M559.42,532.114s.289.039.377-.042c0,.009.013.009.013.016a.023.023,0,0,1-.007.013l.029,0a.168.168,0,0,0,.036.007l.029,0a.049.049,0,0,1-.02.033c.013,0,.026,0,.026.013s0,.042-.013.049a.06.06,0,0,1-.039,0,.162.162,0,0,0,.02.071.148.148,0,0,0,.156.088s.039.095-.126.3c-.022.029-.046.068-.075.1a.386.386,0,0,0-.026.078.657.657,0,0,0,.36-.354,1.856,1.856,0,0,0,.082-.718.37.37,0,0,0-.029-.143.124.124,0,0,0-.195-.022,2.373,2.373,0,0,1-.322.335,1.1,1.1,0,0,1-.276.179h0Z" transform="translate(-554.572 -526.957)" fill="#d7bc6b" fill-rule="evenodd"></path>
          <path id="Path_24949" data-name="Path 24949" d="M508.861,634.117a.243.243,0,0,0-.084.156.51.51,0,0,0,.058.329.332.332,0,0,0,.254.188.277.277,0,0,0,.108-.022.68.68,0,0,0,.146-.091c.064-.049.117-.091.11-.095s-.4-.322-.4-.322l-.143-.16-.051.017Z" transform="translate(-504.36 -628.605)" fill="#585136" fill-rule="evenodd"></path>
          <path id="Path_24950" data-name="Path 24950" d="M544.306,653.3a.334.334,0,0,0,.124-.035c.046-.029-.27-.342-.27-.342l.022.338Z" transform="translate(-539.445 -647.262)" fill="#453a25" fill-rule="evenodd"></path>
          <path id="Path_24951" data-name="Path 24951" d="M517.641,613.176a.455.455,0,0,0-.039.095,1.655,1.655,0,0,0,.029.331.24.24,0,0,0,.212.172.3.3,0,0,0,.163-.052c0-.013-.1-.026-.124-.075a.441.441,0,0,1-.026-.156c0-.042,0-.088.013-.1a.338.338,0,0,0,.042-.152l.126-.234h-.166l-.2.124Z" transform="translate(-513.115 -607.688)" fill="#84754b" fill-rule="evenodd"></path>
          <path id="Path_24952" data-name="Path 24952" d="M516.69,596.4a.72.72,0,0,1,.247-.212.253.253,0,0,1,.17-.016l-.068.175-.1.108.007.055a.337.337,0,0,0,.081.247.255.255,0,0,0,.212.1.276.276,0,0,0,.225-.181.51.51,0,0,0-.009-.488.4.4,0,0,0-.335-.182.469.469,0,0,0-.431.4h0Z" transform="translate(-512.213 -590.835)" fill="#252211" fill-rule="evenodd"></path>
          <path id="Path_24953" data-name="Path 24953" d="M899.483,675.027c-.049-.022,0-.159.046-.2a.343.343,0,0,1,.218-.1c.039,0,.077.022.071.049a.39.39,0,0,1-.139.166C899.594,675.01,899.539,675.052,899.483,675.027Z" transform="translate(-891.668 -668.882)" fill="#f7f7e7" fill-rule="evenodd"></path>
          <path id="Path_24954" data-name="Path 24954" d="M588.824,623.161a.094.094,0,0,1,.091.064c.009.042-.022.126-.091.126s-.084-.068-.084-.088a.1.1,0,0,1,.013-.046A.075.075,0,0,1,588.824,623.161Z" transform="translate(-583.638 -617.761)" fill="#f8f6de" fill-rule="evenodd"></path>
          <path id="Path_24955" data-name="Path 24955" d="M520.46,626.67a.306.306,0,0,0-.133.13.344.344,0,0,0-.026.208.509.509,0,0,0,.062.143.1.1,0,0,0,.075.046.133.133,0,0,0,.068-.1.693.693,0,0,1,.046-.267c.038-.081-.092-.163-.092-.163h0Z" transform="translate(-515.787 -621.24)" fill="#d4c38b" fill-rule="evenodd"></path>
          <path id="Path_24956" data-name="Path 24956" d="M536.63,614.17c-.016.009-.042.022-.036.039s.062.026.082.064a.138.138,0,0,1,.016.1.16.16,0,0,0,.046-.033c.029-.033.064-.077.095-.077s.039.009.058.009.058-.009.062-.039-.055-.075-.091-.068a.086.086,0,0,0-.013-.091c-.029-.026-.12.02-.139.033s-.079.062-.079.062h0Z" transform="translate(-531.943 -608.747)" fill="#e2d59d" fill-rule="evenodd"></path>
          <path id="Path_24957" data-name="Path 24957" d="M683.51,938.057,683.7,938l.055.039s.039.084.1.095c-.02.042-.071.078-.068.108a.091.091,0,0,0,.029.053.452.452,0,0,0,.17.581c-.082.033-.185.078-.241.1a.427.427,0,0,1,.159.058c.036.032.036.042.068.062s.052.046.046.058c-.022-.013-.1-.052-.11-.016s-.325.022-.325.022l-.526.1a.1.1,0,0,0-.036-.1c-.064-.058-.143,0-.227-.062-.11-.084-.114-.182-.15-.218a.693.693,0,0,1,.28-.078.116.116,0,0,1-.016-.088c.016-.046.081-.075.062-.13.029-.007.042-.007.114-.1s.11-.11.163-.117a.24.24,0,0,0,.181-.091c.068-.064.046-.12.046-.12s.045-.014.029-.105h0Z" transform="translate(-676.735 -929.872)" fill="#cbac5a" fill-rule="evenodd"></path>
          <path id="Path_24958" data-name="Path 24958" d="M715.081,940.52c0-.013.013-.02.084-.013s.521-.042.643-.049a4.022,4.022,0,0,1,.77.042c.212.045.426.1.53.124s.137.039.133.052a.038.038,0,0,1-.039.022c-.013,0-.358-.108-.464-.13a4.2,4.2,0,0,0-.676-.078,3.54,3.54,0,0,0-.422.016,3.381,3.381,0,0,1-.5.036c-.078-.009-.062-.009-.058-.022h0Z" transform="translate(-708.881 -932.306)" fill="#d6bc6f" fill-rule="evenodd"></path>
          <path id="Path_24959" data-name="Path 24959" d="M451.506,1064.352a1.07,1.07,0,0,1,.367.325.141.141,0,0,1-.042.2s.153,0,.133.084a1.267,1.267,0,0,1-.432.269.7.7,0,0,1-.25.084c-.082.013-.3-.026-.351.04a.128.128,0,0,0-.013.143.744.744,0,0,0,.12.022s-.022.062-.243.068-.276.022-.289.046.042.009.143.026.243.026.243.026a.45.45,0,0,1-.166.071,2.746,2.746,0,0,0-.415.108.387.387,0,0,0,.1.058.653.653,0,0,0-.146.052l.046.029a.911.911,0,0,1-.175.166,1.431,1.431,0,0,1-.563.172c-.318-.084-.358-.432-.435-.459-.117-.04-.172.039-.276-.016a.642.642,0,0,1,.12-.075c-.053-.026-.325-.2-.325-.2a2.021,2.021,0,0,0-.095-.181c-.053-.091-.13-.212-.188-.318a2.59,2.59,0,0,0-.247-.475c.02-.026.088-.022.088-.022l.958.316,1.7.049.442-.631.188.022Z" transform="translate(-444.247 -1055.107)" fill="#dfc677" fill-rule="evenodd"></path>
          <path id="Path_24960" data-name="Path 24960" d="M547.18,1120.651a.152.152,0,0,0,.035.029.516.516,0,0,1,.114.088c.013-.02.046-.055.1,0s.13.016.175.029.049.022.049.022a.33.33,0,0,1,.084-.046c.036-.013.078-.022.124-.035a.694.694,0,0,1,.12-.022c.029.02.133.13.549-.033.393-.153.484-.17.549-.146.007-.016.013-.046.114-.042a.782.782,0,0,0-.084-.185l-.464-.159H548.4l-.761.139-.422.241-.033.121Z" transform="translate(-542.438 -1110.443)" fill="#c4a859" fill-rule="evenodd"></path>
          <path id="Path_24961" data-name="Path 24961" d="M517.9,1076.785a.246.246,0,0,0,.114.146.658.658,0,0,1,.137.12.629.629,0,0,0,.036-.052c.016-.029.029-.062.055-.071.053-.022.172.02.2.013s.016-.052.039-.052c.055,0,.091.035.11.035s.068,0,.075-.013.009-.12.084-.172a.225.225,0,0,1,.208-.02c0,.02,0,.068.055.071a.267.267,0,0,1,.1.009c.046.016.1,0,.126.075.022-.006.075-.013.062-.088a.385.385,0,0,0,.1-.11c.013-.02.035-.042.053-.071a.214.214,0,0,1,.175.055c-.022.016-.036.026-.042.042a.478.478,0,0,1,.052.062c.02.026.033.058.058.065a2.183,2.183,0,0,0,.247,0,.5.5,0,0,1,.214.064c.013-.006.013-.009.046,0s.058.009.022-.033c.02.009.042.029.062.009a.129.129,0,0,1,.091-.055c.055-.007.075,0,.1-.055s-.071-.071-.071-.071.046-.042.1-.1a.444.444,0,0,0,.15-.225.159.159,0,0,0-.137-.192l-.8.247-.982-.049-.837.417h0Z" transform="translate(-513.412 -1066.845)" fill="#927d49" fill-rule="evenodd"></path>
          <path id="Path_24962" data-name="Path 24962" d="M412.628,849.152a.282.282,0,0,0-.042.11c-.016.078-.009.068-.022.124a2.305,2.305,0,0,0-.114.79c.061.185.166.254.231.4a.585.585,0,0,1,.033.082c.022.1,0,.172.029.269a.3.3,0,0,0,.068.11c.078.081.205.159.26.214.077.082.188.247.329.263a.473.473,0,0,0,.269-.075,2.242,2.242,0,0,1,.208-.156.774.774,0,0,1,.175-.053.791.791,0,0,1,.28-.013,2.7,2.7,0,0,0,.442.088,1.2,1.2,0,0,0,.287-.039c.188-.055.415-.15.565-.192.088-.026.159-.033.231-.049a.5.5,0,0,0,.287-.143c-.039-.046-.088-.117-.351-.114a4.643,4.643,0,0,0-.812.2.683.683,0,0,1-.432-.02c-.186-.069-.192-.115-.192-.115a.832.832,0,0,1-.276-.484.866.866,0,0,1,.212-.841.139.139,0,0,0,.042-.117.529.529,0,0,0,.1-.364c-.042-.175-.312-.139-.312-.139l-1.495.261h0Z" transform="translate(-408.862 -841.532)" fill="#6e6342" fill-rule="evenodd"></path>
          <path id="Path_24963" data-name="Path 24963" d="M458.735,946.91a.136.136,0,0,0-.016.071c0,.035.013.081.12.185a.227.227,0,0,1,.071.192.332.332,0,0,0,.17-.049c.1-.046.13.036.13.036a.273.273,0,0,1,.091-.029.2.2,0,0,0,.081-.026,1.173,1.173,0,0,0,.214.172c.091.049.143.082.188.049a.125.125,0,0,0,.039-.114.345.345,0,0,0-.039-.068c-.029-.042-.075-.091-.078-.13-.007-.091.068-.2.053-.225s-.075-.033-.221.02a3.287,3.287,0,0,1-.8-.083h0Z" transform="translate(-454.744 -938.705)" fill="#39331f" fill-rule="evenodd"></path>
          <path id="Path_24964" data-name="Path 24964" d="M494.1,967.19s-.075-.071-.049-.415a.425.425,0,0,1,.095.009A.746.746,0,0,1,494.1,967.19Z" transform="translate(-489.765 -958.397)" fill="#292311" fill-rule="evenodd"></path>
          <path id="Path_24965" data-name="Path 24965" d="M432.174,809.922a.211.211,0,0,0,.029-.026.653.653,0,0,0-.049.549.729.729,0,0,0,.643.543.737.737,0,0,0,.64-.358c.071-.088.153-.2.225-.273.108-.117.192-.15.192-.263,0-.231-.237-.335-.585-.439a1.329,1.329,0,0,0-.826-.02.451.451,0,0,0-.27.287h0Z" transform="translate(-428.372 -802.564)" fill="#252211" fill-rule="evenodd"></path>
          <path id="Path_24966" data-name="Path 24966" d="M567.78,1013.608l.026-.013s.007-.1.049-.1a.082.082,0,0,1,.058.082.049.049,0,0,1-.055.049.129.129,0,0,1-.077-.016Z" transform="translate(-562.86 -1004.711)" fill="#3f3824" fill-rule="evenodd"></path>
          <path id="Path_24967" data-name="Path 24967" d="M554.31,975.588s.026-.009.058.022a.472.472,0,0,1,.175.009.133.133,0,0,1,.046.042.457.457,0,0,1-.205,0C554.31,975.636,554.31,975.588,554.31,975.588Z" transform="translate(-549.507 -967.133)" fill="#2d2815" fill-rule="evenodd"></path>
          <path id="Path_24968" data-name="Path 24968" d="M596.12,968.067a.324.324,0,0,0-.146-.071c-.013,0-.016.007-.026.007s-.009-.022-.009-.022L595.9,968s-.007.009.016.026.053.029.062.055a.227.227,0,0,0,.013.039.14.14,0,0,0,.071-.013c.022-.013.064-.035.062-.043h0Z" transform="translate(-590.732 -959.592)" fill="#82764f" fill-rule="evenodd"></path>
          <path id="Path_24969" data-name="Path 24969" d="M545.21,997.934a.111.111,0,0,1,.1-.095.1.1,0,0,1,.108.081l-.053.053s-.039-.056-.156-.039Z" transform="translate(-540.486 -989.193)" fill="#2d2816" fill-rule="evenodd"></path>
          <path id="Path_24970" data-name="Path 24970" d="M591.572,956.87a.275.275,0,0,1-.156.068.062.062,0,0,1,0-.081c.029-.042.062-.055.095-.042A.077.077,0,0,1,591.572,956.87Z" transform="translate(-586.276 -948.519)" fill="#574f35" fill-rule="evenodd"></path>
          <path id="Path_24971" data-name="Path 24971" d="M631.552,952.682c0-.013-.007-.016,0-.022s.042-.02.049-.013,0,.013,0,.026a.062.062,0,0,1-.007.035.053.053,0,0,1-.049.016c-.013,0-.016-.022-.016-.026S631.552,952.688,631.552,952.682Zm.224-.142c0-.007.022-.02.036-.02s.02.016.022.02.007,0,.013.009.016.033.009.046a.048.048,0,0,1-.039.02A.35.35,0,0,1,631.777,952.54Z" transform="translate(-626.058 -944.266)" fill="#82764f" fill-rule="evenodd"></path>
          <path id="Path_24972" data-name="Path 24972" d="M607.86,974.66a.184.184,0,0,1,.068.039.374.374,0,0,1-.033.02.1.1,0,0,0-.035-.059Z" transform="translate(-602.593 -966.214)" fill="#6e6342" fill-rule="evenodd"></path>
          <path id="Path_24973" data-name="Path 24973" d="M600.311,896.436c-.007-.006.02-.022.035-.02s.022.013.039.016.02-.007.026-.013.029,0,.033,0l.007.009a.036.036,0,0,1,.013-.026.041.041,0,0,1,.036-.007.2.2,0,0,1,.013.049c0,.007-.042.016-.049.009a.463.463,0,0,0,.039.055c0,.007-.029.022-.042.02a.536.536,0,0,1-.151-.092Zm.172-.218a.03.03,0,0,0-.013-.016c-.009,0-.039,0-.039.016a.489.489,0,0,0,.055.15c.033.046.055.084.078.095a.031.031,0,0,0,.039-.013.791.791,0,0,0,.007-.17,1.561,1.561,0,0,0-.013-.231.035.035,0,0,0-.042.007,1.224,1.224,0,0,0-.071.163h0Z" transform="translate(-595.108 -888.279)" fill="#585136" fill-rule="evenodd"></path>
          <path id="Path_24974" data-name="Path 24974" d="M591.907,991.94a.107.107,0,0,0-.091-.009c-.042.02-.039.1-.039.1a.063.063,0,0,0,.058-.007.177.177,0,0,0,.072-.081Z" transform="translate(-586.648 -983.328)" fill="#574f35" fill-rule="evenodd"></path>
          <path id="Path_24975" data-name="Path 24975" d="M613.836,939.965c0-.026-.026-.026-.026-.039a.029.029,0,0,1,.029-.022c.013,0,.026.016.042.026s.039.026.042.046-.026.075-.058.075-.022-.059-.029-.085Zm.254-.036s-.053.016-.049,0,.016-.02.033-.02a.052.052,0,0,1,.033-.016.029.029,0,0,1,.02.007s.036-.016.046-.007,0,.009.009.02a.092.092,0,0,1,.016.039c0,.01-.039.033-.071.029S614.1,939.936,614.09,939.93Zm.306-.059s.016.009,0,.02a.214.214,0,0,1-.095.029c-.039,0-.075.006-.075-.007s.033-.039.052-.046a.042.042,0,0,1,.033-.016c.016,0,.077-.007.095-.009s.029.007.02.02S614.4,939.87,614.4,939.87Zm.091-.406s-.02.042-.042.042-.022-.009-.022-.016.022-.033.02-.039-.022,0-.02-.016.022-.029.042-.026a.087.087,0,0,1,.053-.02c.022,0,.042.007.042.02s-.026.042-.036.049-.024.017-.037.006Zm-.3.777s-.026,0-.026.016.006.007.016,0l.016,0s0,.016.022.016a.126.126,0,0,0,.046-.016c.016-.006.029-.013.029-.026a.039.039,0,0,0-.039-.033.053.053,0,0,0-.029.007s-.007-.013-.029,0-.02.013-.013.02.008.017.008.017Zm-.149.137c0-.007.033-.02.042-.016a.168.168,0,0,1,.035.058c0,.007-.033.022-.046.022a.061.061,0,0,1-.035-.026s.016-.006.016-.009-.012-.022-.012-.029Zm-.1-.192c.007,0,.007-.009.016-.016a.023.023,0,0,1,.02,0,.032.032,0,0,1,.022-.016c.016,0,.029,0,.026.007s.013.033.013.049-.009.036-.042.049a.231.231,0,0,1-.084.007.043.043,0,0,1-.007-.042.109.109,0,0,1,.036-.034h0Z" transform="translate(-608.491 -931.25)" fill="#82764f" fill-rule="evenodd"></path>
          <path id="Path_24976" data-name="Path 24976" d="M630.14,1032.31s-.022.013-.022.02a.06.06,0,0,0,0,.02s.029,0,.033-.007S630.14,1032.317,630.14,1032.31Z" transform="translate(-624.655 -1023.365)" fill="#6e6342" fill-rule="evenodd"></path>
          <path id="Path_24977" data-name="Path 24977" d="M603.8,1024.394a.276.276,0,0,1,.052.007c.013.007.022.02.009.036s-.026.039-.055.035-.064-.02-.064-.033a.063.063,0,0,1,.016-.046c.013-.01.02,0,.042,0h0Z" transform="translate(-598.512 -1015.51)" fill="#585136" fill-rule="evenodd"></path>
          <path id="Path_24978" data-name="Path 24978" d="M587.529,1026.7a.37.37,0,0,0-.053.049c-.013.016-.078.1-.1.114a.245.245,0,0,1,.022-.033.135.135,0,0,0-.055.071c-.016.049.088.075.156.095s.095.026.095.026a.733.733,0,0,1-.065-.12c-.026-.062-.039-.068-.022-.1s.033-.049.033-.071S587.529,1026.7,587.529,1026.7Z" transform="translate(-582.255 -1017.803)" fill="#574f35" fill-rule="evenodd"></path>
          <path id="Path_24979" data-name="Path 24979" d="M435.66,1031.129a.082.082,0,0,0,.029,0,1.335,1.335,0,0,1,.439-.064,2.349,2.349,0,0,1,.474.078c.27.071.6.212.822.292.058.022.114.062.156.078a.994.994,0,0,0,.27.082,1.058,1.058,0,0,0,.354-.049c.15-.033.406-.049.631-.082a1.289,1.289,0,0,0,.214-.049,1.128,1.128,0,0,1-.607.243,1.9,1.9,0,0,1-.523.007,1.6,1.6,0,0,1-.3-.053c-.078-.022-.237-.082-.432-.13-.137-.036-.289-.062-.464-.095a5.485,5.485,0,0,1-1.066-.258Z" transform="translate(-431.885 -1022.128)" fill="#252211" fill-rule="evenodd"></path>
          <line id="Line_99" data-name="Line 99" x1="1.095" y1="1.023" transform="translate(2.457 6.311)" fill="none"></line>
          <path id="Path_24980" data-name="Path 24980" d="M229.6,944.94c-.1.088-.214.172-.322.254l-.325.249c-.11.081-.218.166-.329.247s-.221.159-.338.234c.1-.088.214-.17.325-.25s.225-.159.331-.24l.325-.25c.112-.081.219-.166.333-.244Zm-.574.92s.117-.1.263-.234a5.636,5.636,0,0,1,.475-.426l-.738.66Z" transform="translate(-226.312 -936.752)" fill="#cfb66c" fill-rule="evenodd"></path>
          <path id="Path_24981" data-name="Path 24981" d="M313.56,975.323c.058-.058.12-.114.181-.17l.095-.081c.029-.026.062-.055.091-.084.058-.058.114-.12.172-.179a1.084,1.084,0,0,1,.091-.084.244.244,0,0,1,.053-.036.153.153,0,0,1,.055-.029c-.013.02-.029.029-.042.046s-.029.029-.042.042c-.029.029-.062.055-.091.082-.062.053-.126.1-.188.159s-.12.114-.181.17-.129.112-.193.165Zm.786-.526s-.428.419-.517.488Z" transform="translate(-310.843 -966.214)" fill="#cfb66c" fill-rule="evenodd"></path>
          <path id="Path_24982" data-name="Path 24982" d="M345.177,990.44a1.4,1.4,0,0,1-.124.126l-.13.124c-.042.042-.082.084-.126.126s-.088.078-.137.114l.126-.124c.042-.042.088-.078.133-.12l.126-.124C345.089,990.52,345.131,990.478,345.177,990.44Zm.02.227a2.73,2.73,0,0,1-.139.322c-.11.221-.276.5-.348.638Z" transform="translate(-341.673 -981.857)" fill="#cfb66c" fill-rule="evenodd"></path>
          <path id="Path_24983" data-name="Path 24983" d="M350.906,1016.69a.37.37,0,0,1-.029.133,1.309,1.309,0,0,1-.053.124c-.02.039-.042.082-.064.12s-.049.078-.068.117l-.133.234c-.046.078-.091.156-.139.231a2.142,2.142,0,0,1,.12-.241c.046-.078.088-.156.13-.237a1.328,1.328,0,0,0,.055-.123c.02-.042.039-.082.055-.12s.035-.082.055-.12a.769.769,0,0,1,.071-.118Z" transform="translate(-347.383 -1007.88)" fill="#cfb66c" fill-rule="evenodd"></path>
          <path id="Path_24984" data-name="Path 24984" d="M447.072,1141.08a.65.65,0,0,0-.117.39C446.991,1141.356,447.036,1141.181,447.072,1141.08Zm.124.173s-.046.468-.084.7A2.818,2.818,0,0,0,447.2,1141.253Zm.861.726a4.94,4.94,0,0,0-.2.731c.042-.163.124-.5.2-.731Z" transform="translate(-443.082 -1131.192)" fill="#dec270" fill-rule="evenodd"></path>
          <path id="Path_24985" data-name="Path 24985" d="M626.67,1137s.315.521.552.965A2.189,2.189,0,0,0,626.67,1137Z" transform="translate(-621.24 -1127.147)" fill="#cbaf59" fill-rule="evenodd"></path>
          <path id="Path_24986" data-name="Path 24986" d="M724.52,1225.43a9.56,9.56,0,0,1,.468.945A1.445,1.445,0,0,0,724.52,1225.43Z" transform="translate(-718.242 -1214.811)" fill="#e3c677" fill-rule="evenodd"></path>
          <path id="Path_24987" data-name="Path 24987" d="M873.606,986.523c.052-.033.156-.212.247-.256a.622.622,0,0,0,.241-.146.58.58,0,0,1,.283-.227c.25-.108.078-.247.078-.247a.81.81,0,0,1,.088-.075.249.249,0,0,0,.133-.212.921.921,0,0,0-.185-.576c.139-.029.406-.049.572-.091a.817.817,0,0,0,.28-.117.319.319,0,0,1,.068-.377,2.2,2.2,0,0,0,.433-.514,1.263,1.263,0,0,0-.793.1.6.6,0,0,1,.075.042,1.487,1.487,0,0,0-.4.172c-.188.159-.212.289-.415.386s-.409.071-.578.15a1.53,1.53,0,0,0-.256.175c.013.016,0,.042.022.064-.016.022-.108.172-.2.172.009.036.088.062.088.062a.424.424,0,0,1-.205.053,1.494,1.494,0,0,0,.342.287c-.016.033-.082.082-.055.143s.1.146.4.214a2.651,2.651,0,0,1-.572.009.947.947,0,0,0-.429-.009c.016.016.058.016.095.058-.039,0-.287-.029-.371.082a.716.716,0,0,0-.12.429.112.112,0,0,0-.068.143c.022.082.139.108.214.159s.081.075.153.062.185-.091.25-.091a.168.168,0,0,1,.11.049s.175-.084.192-.068,0,.117.02.133a1.261,1.261,0,0,0,.267-.138Z" transform="translate(-864.835 -975.136)" fill="#ecd592" fill-rule="evenodd"></path>
          <path id="Path_24988" data-name="Path 24988" d="M463.887,419.235a4.136,4.136,0,0,0-2.853-2.515H455.24l.022,2.161h1.154v4.826H455.24v2.157h5.634a3.706,3.706,0,0,0,2.446-1.365,5.831,5.831,0,0,0,.567-5.265Zm-2.983,3.811s-.442.638-.923.638h-.962l-.023-4.8h1.234s.572.12.971,1.251A3.773,3.773,0,0,1,460.9,423.045Z" transform="translate(-451.295 -413.109)" fill="rgba(255,255,255,0.8)" fill-rule="evenodd"></path>
        </g>
      </g>
    </g>
  </g>
</svg>
