<svg width="13" height="13" viewBox="0 0 13 13" fill="none" xmlns="http://www.w3.org/2000/svg">
<path d="M6.5 12.999C10.0899 12.999 13 10.0889 13 6.49902C13 2.90917 10.0899 -0.000976562 6.5 -0.000976562C2.91015 -0.000976562 0 2.90917 0 6.49902C0 10.0889 2.91015 12.999 6.5 12.999Z" fill="black"/>
<path d="M4.21 8.10267C4.25411 8.05885 4.31384 8.03439 4.376 8.03467H10.091C10.1385 8.03445 10.1814 8.06296 10.1996 8.10683C10.2178 8.15069 10.2077 8.2012 10.174 8.23467L9.045 9.36367C9.0009 9.40749 8.94117 9.43196 8.879 9.43168H3.166C3.11852 9.43189 3.0756 9.40338 3.0574 9.35952C3.0392 9.31566 3.04931 9.26514 3.083 9.23167L4.21 8.10267Z" fill="url(#paint0_linear_1_38277)"/>
<path d="M4.21 3.88685C4.25428 3.8439 4.31333 3.81957 4.375 3.81885H10.091C10.1385 3.81863 10.1814 3.84714 10.1996 3.891C10.2178 3.93487 10.2077 3.98538 10.174 4.01885L9.045 5.14785C9.0009 5.19167 8.94117 5.21614 8.879 5.21585H3.166C3.11852 5.21607 3.0756 5.18756 3.0574 5.1437C3.0392 5.09984 3.04931 5.04932 3.083 5.01585L4.21 3.88685Z" fill="url(#paint1_linear_1_38277)"/>
<path d="M9.045 5.98109C9.0009 5.93727 8.94117 5.91281 8.879 5.91309H3.166C3.11852 5.91287 3.0756 5.94138 3.0574 5.98524C3.0392 6.02911 3.04931 6.07962 3.083 6.11309L4.212 7.24209C4.25611 7.28591 4.31583 7.31038 4.378 7.31009H10.091C10.1385 7.31031 10.1814 7.2818 10.1996 7.23794C10.2178 7.19408 10.2077 7.14356 10.174 7.11009L9.045 5.98109Z" fill="url(#paint2_linear_1_38277)"/>
<defs>
<linearGradient id="paint0_linear_1_38277" x1="9.54266" y1="10.1469" x2="9.3907" y2="2.49687" gradientUnits="userSpaceOnUse">
<stop stop-color="#00FFA3"/>
<stop offset="1" stop-color="#DC1FFF"/>
</linearGradient>
<linearGradient id="paint1_linear_1_38277" x1="7.81708" y1="11.0484" x2="7.66512" y2="3.3983" gradientUnits="userSpaceOnUse">
<stop stop-color="#00FFA3"/>
<stop offset="1" stop-color="#DC1FFF"/>
</linearGradient>
<linearGradient id="paint2_linear_1_38277" x1="8.67629" y1="10.6015" x2="8.52433" y2="2.94999" gradientUnits="userSpaceOnUse">
<stop stop-color="#00FFA3"/>
<stop offset="1" stop-color="#DC1FFF"/>
</linearGradient>
</defs>
</svg>
