<?xml version="1.0" encoding="UTF-8"?>
<svg xmlns="http://www.w3.org/2000/svg" xmlns:xlink="http://www.w3.org/1999/xlink" viewBox="0 0 54 54">
  <clipPath id="a">
    <path d="m0 0h25.1v24h-25.1z"></path>
  </clipPath>
  <path d="m27 0c14.9 0 27 12.1 27 27 0 14.9-12.1 27-27 27s-27-12.1-27-27c0-14.9 12.1-27 27-27z" fill="#87959b"></path>
  <g clip-path="url(#a)" fill="#fff" transform="translate(14.354 14.795)">
    <path d="m12.6 24c-6.1 0-12.6-1.7-12.6-5.5 0-1.2.7-3.3 5.4-4.7l.9 3c-2.4.7-3 1.5-3.1 1.7.2.7 3.6 2.4 9.4 2.4s9.3-1.7 9.4-2.5c0-.1-.7-.9-3-1.6l.9-3c4.5 1.3 5.2 3.5 5.2 4.6 0 3.9-6.5 5.7-12.5 5.6"></path>
    <path d="m12.6 17.6c-6.1 0-12.6-1.7-12.6-5.6 0-1.1.7-3.2 5-4.6l.9 3c-2.2.7-2.8 1.4-2.8 1.6.2.7 3.6 2.4 9.4 2.4s9.3-1.7 9.4-2.5c0-.1-.7-.9-3-1.6l.9-3c4.5 1.3 5.2 3.5 5.2 4.6.1 4-6.4 5.7-12.4 5.7"></path>
    <path d="m6.2 10.4-1.2-3 .3-.1z"></path>
    <path d="m12.6 11.2c-6.1 0-12.6-1.8-12.6-5.6s6.5-5.6 12.6-5.6 12.6 1.7 12.6 5.6-6.6 5.6-12.6 5.6m0-8.1c-5.9 0-9.3 1.7-9.4 2.5.1.7 3.5 2.4 9.4 2.4 5.8 0 9.2-1.7 9.4-2.4-.2-.8-3.6-2.5-9.4-2.5"></path>
  </g>
</svg>
