<?xml version="1.0" encoding="UTF-8"?>
<svg xmlns="http://www.w3.org/2000/svg" width="16.133" height="14.98" viewBox="0 0 16.133 14.98">
  <path id="Icon_ionic-ios-star" data-name="Icon ionic-ios-star" d="M17.771,8.561h-5.3l-1.61-4.8a.583.583,0,0,0-1.095,0l-1.61,4.8H2.826a.578.578,0,0,0-.576.576.423.423,0,0,0,.011.1.554.554,0,0,0,.241.407l4.354,3.068L5.185,17.567a.578.578,0,0,0,.2.648.557.557,0,0,0,.324.14.706.706,0,0,0,.36-.13L10.316,15.2l4.249,3.029a.675.675,0,0,0,.36.13.517.517,0,0,0,.32-.14.571.571,0,0,0,.2-.648l-1.671-4.858,4.318-3.1.1-.09a.551.551,0,0,0-.425-.961Z" transform="translate(-2.25 -3.375)" fill="#f4e31b"></path>
</svg>
