<?xml version="1.0" encoding="UTF-8"?>
<svg xmlns="http://www.w3.org/2000/svg" width="15.817" height="16" viewBox="0 0 15.817 16">
  <g id="Group_938" transform="translate(-953.47 -231.963)">
    <g id="Group_931" transform="translate(953.47 232.486)">
      <path id="Path_8573" d="M1132.253,254.081a10.183,10.183,0,0,0-1.124,1.334l-.106-.035a7.694,7.694,0,0,0-1.883-.365c-.192-.015-.91-.015-1.144,0a6.653,6.653,0,0,0-1.866.367c-.025.01-.047.017-.069.025a10.035,10.035,0,0,0-1.161-1.324,8.071,8.071,0,0,1,6.582-.348c.229.086.453.187.673.3Z" transform="translate(-1120.674 -253.196)" fill="#f00500"></path>
      <path id="Path_8574" d="M968.865,391.3a7.7,7.7,0,0,1-1.38,2.421,8.585,8.585,0,0,1-1.08,1.058,7.965,7.965,0,0,1-3.113,1.536,8.16,8.16,0,0,1-3.826,0,7.949,7.949,0,0,1-3.113-1.536,8.57,8.57,0,0,1-1.08-1.058,7.608,7.608,0,0,1-1.38-7.415,8.059,8.059,0,0,1,.629-1.356c.116-.2.259-.419.328-.51.237,1.018.527,1.913.636,2.236a.535.535,0,0,1-.027.054,8.937,8.937,0,0,0-.959,3.478c0,.015,0,.032,0,.047a2.144,2.144,0,0,0,.049.752,4.823,4.823,0,0,0,1.647,2.236,9.494,9.494,0,0,0,4.945,2.243,8.587,8.587,0,0,0,5.413-2.145,7.751,7.751,0,0,0,.68-.683,3.731,3.731,0,0,0,.362-.483c-.005,0,0,0,.01-.01s.015-.012.01-.017,0-.01.01-.012.012-.007.01-.012,0-.01.01-.012a.011.011,0,0,0,.007-.015s0-.01,0-.01.01-.007.01-.012.005-.012.01-.012a.011.011,0,0,0,.01-.01.26.26,0,0,1,.032-.057c.037-.057.185-.32.2-.365a3.388,3.388,0,0,0,.271-.885,2.51,2.51,0,0,0,.022-.444c0-.01,0-.027,0-.054-.005-.049-.007-.123-.012-.2-.005-.111-.015-.266-.022-.343a7.228,7.228,0,0,0-.934-3,.85.85,0,0,1-.054-.1.164.164,0,0,1-.01-.02h0c.077-.229.39-1.188.639-2.285l0,0,.037.049c.064.086.234.343.311.466a7.573,7.573,0,0,1,.7,6.483Z" transform="translate(-953.47 -381.068)" fill="#f00500"></path>
      <path id="Path_8575" d="M1341.987,515.9a.827.827,0,0,1-.239.244,4.122,4.122,0,0,1-1.568.592,1.926,1.926,0,0,1-.811.022c-.069-.034-.079-.062-.054-.15a1.2,1.2,0,0,1,.481-.577c.133-.1.673-.424.924-.562a3.264,3.264,0,0,1,.976-.394.5.5,0,0,1,.185,0c.044.017.094.148.113.306A3.974,3.974,0,0,1,1341.987,515.9Z" transform="translate(-1329.792 -508.606)"></path>
      <path id="Path_8576" d="M1104.428,517.724a.269.269,0,0,1-.173.074,2.791,2.791,0,0,1-.486-.012,5.1,5.1,0,0,1-1.482-.427,1.867,1.867,0,0,1-.51-.343l-.069-.072-.007-.094a2.59,2.59,0,0,1,.01-.51.672.672,0,0,1,.076-.217c.02-.025.02-.025.109-.025a1.065,1.065,0,0,1,.347.064,6.773,6.773,0,0,1,1.3.651,2.258,2.258,0,0,1,.754.587A.494.494,0,0,1,1104.428,517.724Z" transform="translate(-1098.041 -509.619)"></path>
      <path id="Path_8577" d="M1211.8,629.615c0,.007-.03.126-.066.266s-.067.254-.067.259a.421.421,0,0,1-.079,0h-.079l-.108.256c-.059.14-.113.271-.121.291l-.015.034-.052-.084-.052-.084v-.683l-.02,0c-.042.01-.34.049-.471.062a6.721,6.721,0,0,1-1.62-.035c-.086-.012-.16-.022-.163-.02s0,.16,0,.355l.007.35-.042.064c-.022.034-.044.064-.044.067s-.032-.032-.089-.145a1.672,1.672,0,0,1-.138-.375l-.017-.071-.076,0-.076.007-.02-.091c-.01-.049-.022-.126-.027-.168l-.007-.079-.064-.057c-.037-.032-.074-.064-.081-.069a.054.054,0,0,1-.017-.042v-.03l.308,0,.308,0,.01.032.01.032.106,0,.414.012.308.007.079-.123.081-.123h.1l0-.256,0-.256-.136-.059a1.323,1.323,0,0,1-.789-.678.955.955,0,0,1-.025-.32.979.979,0,0,1,.015-.32.359.359,0,0,1,.254-.252,5.9,5.9,0,0,1,.735-.012l.685,0,.076.037a.428.428,0,0,1,.185.145.408.408,0,0,1,.076.291,2.186,2.186,0,0,1-.037.473,1.025,1.025,0,0,1-.143.283,1.313,1.313,0,0,1-.552.387l-.059.022,0,.259,0,.259.054,0,.054,0,.074.111.072.111h.33c.182,0,.343,0,.357,0s.03,0,.054-.039l.03-.044h.284A.9.9,0,0,1,1211.8,629.615Z" transform="translate(-1201.921 -618.078)"></path>
      <path id="Path_8578" d="M1253.51,741.61c-.047.027-.079.039-.086.034s-.042-.032-.079-.059l-.067-.054-.069.074c-.15.163-.156.17-.2.173-.069.007-.084-.005-.168-.131-.044-.064-.079-.118-.079-.118s-.032-.005-.069-.007l-.069-.007-.032.067-.032.067-.057-.017a1.213,1.213,0,0,1-.131-.052l-.074-.037V741.4l.656,0,.656,0,0,.066C1253.616,741.55,1253.619,741.548,1253.51,741.61Z" transform="translate(-1244.934 -729.365)"></path>
    </g>
    <path id="Path_8579" d="M1008.448,581.181c0-.01,0-.027,0-.054a5.242,5.242,0,0,0-3.848,1.191,2.986,2.986,0,0,0-2.872-2.317,3.676,3.676,0,0,0-3.244,2.317,4.26,4.26,0,0,0-3.742-1.23c0,.015,0,.032,0,.047a2.147,2.147,0,0,0,.049.752,4.823,4.823,0,0,0,1.647,2.236,9.5,9.5,0,0,0,4.945,2.243,8.586,8.586,0,0,0,5.413-2.145,7.7,7.7,0,0,0,.68-.683,3.727,3.727,0,0,0,.362-.483c-.005,0,0,0,.01-.01s.015-.012.01-.017,0-.01.01-.012.012-.007.01-.012,0-.01.01-.012a.011.011,0,0,0,.007-.015s0-.01,0-.01.01-.007.01-.012,0-.012.01-.012a.011.011,0,0,0,.01-.01.256.256,0,0,1,.032-.057c.037-.057.185-.321.2-.365a3.4,3.4,0,0,0,.271-.885A2.987,2.987,0,0,0,1008.448,581.181Zm-6.163,3.007c-.047.027-.079.039-.086.035s-.042-.032-.079-.059l-.066-.054-.069.074c-.15.163-.155.17-.2.173-.069.007-.084,0-.168-.131-.044-.064-.079-.118-.079-.118s-.032,0-.069-.007l-.069-.007-.032.067-.032.067-.057-.017a1.2,1.2,0,0,1-.131-.052l-.074-.037v-.141l.656,0,.656,0,0,.067C1002.391,584.129,1002.394,584.127,1002.285,584.188Zm1.233-.444c-.037.141-.067.254-.067.259a.426.426,0,0,1-.079,0h-.079l-.106.259c-.059.141-.113.271-.121.291l-.015.034-.052-.084-.052-.084v-.683l-.02,0c-.042.01-.34.049-.471.062a6.72,6.72,0,0,1-1.62-.035c-.086-.012-.16-.022-.163-.02s0,.16.005.355l.007.35-.042.064c-.022.035-.044.064-.044.067s-.032-.032-.089-.145a1.662,1.662,0,0,1-.138-.375l-.017-.072-.076,0-.077.007-.02-.091c-.01-.049-.022-.126-.027-.168l-.007-.079-.064-.057c-.037-.032-.074-.064-.081-.069a.054.054,0,0,1-.017-.042v-.03l.308,0,.308,0,.01.032.01.032.106,0,.414.012.308.007.079-.123.081-.123h.1l0-.256,0-.256-.136-.059a1.323,1.323,0,0,1-.789-.678.946.946,0,0,1-.025-.32.982.982,0,0,1,.015-.32.358.358,0,0,1,.254-.251,5.869,5.869,0,0,1,.735-.012l.685,0,.076.037a.428.428,0,0,1,.185.145.407.407,0,0,1,.076.291,2.174,2.174,0,0,1-.037.473,1.021,1.021,0,0,1-.143.284,1.314,1.314,0,0,1-.552.387l-.059.022,0,.259,0,.259.054.005.054,0,.074.111.072.111h.33c.182,0,.343,0,.357,0s.029,0,.054-.039l.03-.044h.283a1.193,1.193,0,0,1,.284.01A1.687,1.687,0,0,0,1003.518,583.744Z" transform="translate(-40.239 -339.458)" fill="#fff"></path>
    <path id="Path_8580" d="M985.247,624.1a2.274,2.274,0,0,0-.247.047" transform="translate(-30.753 -382.471)" fill="none"></path>
    <path id="Path_8581" d="M1551.419,625.732s-.079-.017-.219-.032" transform="translate(-582.996 -384.032)" fill="none"></path>
    <path id="Path_8582" d="M1008.7,241.471c-.005-.111-.015-.266-.022-.343a7.232,7.232,0,0,0-.934-3,.85.85,0,0,1-.054-.1.166.166,0,0,1-.01-.02h0c.076-.229.39-1.188.638-2.285.338-1.489.552-3.229-.1-3.752a3.867,3.867,0,0,0-2.652,1.405,10.2,10.2,0,0,0-1.124,1.334l-.106-.035a7.694,7.694,0,0,0-1.883-.365c-.192-.015-.909-.015-1.144,0a6.652,6.652,0,0,0-1.866.367c-.025.01-.047.017-.069.025a10.043,10.043,0,0,0-1.161-1.324,4.072,4.072,0,0,0-2.756-1.41c-.7.54-.459,2.359-.1,3.9.237,1.018.528,1.913.636,2.236a.56.56,0,0,1-.027.054,8.937,8.937,0,0,0-.959,3.478,4.257,4.257,0,0,1,3.745,1.23,3.676,3.676,0,0,1,3.244-2.317,2.986,2.986,0,0,1,2.872,2.317,5.254,5.254,0,0,1,3.848-1.191C1008.706,241.619,1008.7,241.545,1008.7,241.471Zm-12.244-4.3a8.974,8.974,0,0,1-.685-3.621h0a1.27,1.27,0,0,1,.229-.564s1.045.1,2.731,1.977a4.823,4.823,0,0,0-.749.486.009.009,0,0,1-.005,0,5.924,5.924,0,0,0-1.521,1.721Zm3.912,3.424a.268.268,0,0,1-.173.074,2.786,2.786,0,0,1-.485-.012,5.1,5.1,0,0,1-1.482-.426,1.866,1.866,0,0,1-.51-.343l-.069-.071-.007-.094a2.572,2.572,0,0,1,.01-.51.67.67,0,0,1,.077-.217c.02-.025.02-.025.108-.025a1.067,1.067,0,0,1,.348.064,6.786,6.786,0,0,1,1.3.651,2.26,2.26,0,0,1,.754.587A.493.493,0,0,1,1000.364,240.591Zm5.808-.816a.831.831,0,0,1-.239.244,4.12,4.12,0,0,1-1.568.592,1.927,1.927,0,0,1-.811.022c-.069-.035-.079-.062-.054-.15a1.2,1.2,0,0,1,.481-.577c.133-.1.673-.424.925-.562a3.264,3.264,0,0,1,.976-.394.5.5,0,0,1,.185,0c.044.017.094.148.113.306A4.018,4.018,0,0,1,1006.172,239.775Zm-.409-4.331,0,0a4.6,4.6,0,0,0-.725-.486c1.629-1.873,2.638-1.977,2.638-1.977a1.337,1.337,0,0,1,.222.564h0a9.257,9.257,0,0,1-.661,3.624,5.873,5.873,0,0,0-1.469-1.723Z" transform="translate(-40.507 0)" fill="#ffa409"></path>
    <path id="Path_8583" d="M1377.112,343.2s-.007.012-.012.017" transform="translate(-413.187 -108.495)" fill="none"></path>
    <path id="Path_8584" d="M1508.417,476.9c-.012.034-.017.052-.017.052" transform="translate(-541.251 -238.9)" fill="none"></path>
    <g id="Group_934" transform="translate(964.526 232.979)">
      <g id="Group_933" transform="translate(0)">
        <g id="Group_932">
          <path id="Path_8585" d="M1404.862,273.765c-.192-.025-1.1-.03-2.132,1.9l0,0a4.6,4.6,0,0,0-.725-.486c1.63-1.873,2.638-1.977,2.638-1.977A1.306,1.306,0,0,1,1404.862,273.765Z" transform="translate(-1402 -273.2)" fill="#ff9300"></path>
        </g>
        <path id="Path_8586" d="M1433.072,299.53a5.849,5.849,0,0,0-1.472-1.723c1.03-1.93,1.938-1.925,2.132-1.9h0A9.248,9.248,0,0,1,1433.072,299.53Z" transform="translate(-1430.87 -295.342)" fill="#ff8300"></path>
        <path id="Path_8587" d="M1518.137,296.107l-.037-.007Z" transform="translate(-1515.238 -295.535)" fill="#ff8300"></path>
      </g>
    </g>
    <path id="Path_8588" d="M1172.076,343c-.025-.035-.052-.069-.076-.1" transform="translate(-213.143 -108.203)" fill="none"></path>
    <path id="Path_8589" d="M1035,480.8c.027.084.044.128.044.128" transform="translate(-79.521 -242.703)" fill="none"></path>
    <g id="Group_937" transform="translate(955.221 232.979)">
      <g id="Group_936" transform="translate(0)">
        <g id="Group_935" transform="translate(0.037)">
          <path id="Path_8590" d="M1028.963,275.177a4.827,4.827,0,0,0-.75.486.009.009,0,0,1,0,0c-1.067-1.933-2.006-1.925-2.209-1.9a1.273,1.273,0,0,1,.229-.565S1027.277,273.3,1028.963,275.177Z" transform="translate(-1026 -273.2)" fill="#ff9300"></path>
        </g>
        <path id="Path_8591" d="M1026.772,297.807a5.91,5.91,0,0,0-1.523,1.723,8.978,8.978,0,0,1-.685-3.624h0C1024.763,295.882,1025.7,295.877,1026.772,297.807Z" transform="translate(-1024.524 -295.342)" fill="#ff8300"></path>
        <path id="Path_8592" d="M1024.539,296.1l-.039.007Z" transform="translate(-1024.5 -295.535)" fill="#ff8300"></path>
      </g>
    </g>
    <path id="Path_8593" d="M1362.453,446.074s-.789.049-.69-.567a.814.814,0,0,1,.887-.666c.172.025.863.271.74.789s-.3.419-.394.444A3.908,3.908,0,0,1,1362.453,446.074Z" transform="translate(-398.22 -207.628)" fill="#fff"></path>
    <path id="Path_8594" d="M1126.453,446.074s-.789.049-.69-.567a.814.814,0,0,1,.887-.666c.173.025.863.271.74.789s-.3.419-.395.444A3.906,3.906,0,0,1,1126.453,446.074Z" transform="translate(-168.037 -207.628)" fill="#fff"></path>
  </g>
</svg>
